<svg xmlns="http://www.w3.org/2000/svg" xmlns:xlink="http://www.w3.org/1999/xlink" width="300" zoomAndPan="magnify" viewBox="0 0 224.87999 37.5" height="50" preserveAspectRatio="xMidYMid meet" version="1.0"><defs><g/></defs><g fill="#767676" fill-opacity="1"><g transform="translate(53.84528, 29.802634)"><g><path d="M 6.890625 3.59375 C 6.109375 3.59375 5.421875 3.53125 4.828125 3.40625 C 4.242188 3.28125 3.734375 2.972656 3.296875 2.484375 C 2.867188 2.003906 2.65625 1.257812 2.65625 0.25 C 2.65625 -1.15625 3.078125 -3.046875 3.921875 -5.421875 C 4.773438 -7.804688 5.898438 -10.195312 7.296875 -12.59375 C 6.242188 -12.53125 5.410156 -12.375 4.796875 -12.125 C 4.191406 -11.875 3.789062 -11.484375 3.59375 -10.953125 C 3.675781 -10.953125 3.765625 -10.847656 3.859375 -10.640625 C 3.960938 -10.429688 4.015625 -10.210938 4.015625 -9.984375 C 4.015625 -9.597656 3.84375 -9.296875 3.5 -9.078125 C 3.164062 -8.859375 2.742188 -8.75 2.234375 -8.75 C 1.648438 -8.75 1.175781 -8.90625 0.8125 -9.21875 C 0.457031 -9.53125 0.28125 -9.984375 0.28125 -10.578125 C 0.28125 -11.296875 0.554688 -11.945312 1.109375 -12.53125 C 1.671875 -13.125 2.445312 -13.59375 3.4375 -13.9375 C 4.425781 -14.289062 5.519531 -14.46875 6.71875 -14.46875 C 7.164062 -14.46875 7.71875 -14.4375 8.375 -14.375 C 10.09375 -17.101562 11.914062 -19.335938 13.84375 -21.078125 C 15.769531 -22.816406 17.609375 -23.6875 19.359375 -23.6875 C 20.367188 -23.6875 21.203125 -23.535156 21.859375 -23.234375 L 16.890625 0 L 12.34375 0 L 14.78125 -11.46875 C 14 -11.820312 13.28125 -12.082031 12.625 -12.25 C 11.976562 -12.414062 11.285156 -12.53125 10.546875 -12.59375 C 9.347656 -10.007812 8.363281 -7.363281 7.59375 -4.65625 C 6.820312 -1.945312 6.4375 0.210938 6.4375 1.828125 C 6.4375 2.628906 6.585938 3.21875 6.890625 3.59375 Z M 16.890625 -21.4375 C 15.984375 -20.957031 15.039062 -20.054688 14.0625 -18.734375 C 13.082031 -17.421875 12.128906 -15.828125 11.203125 -13.953125 C 12.722656 -13.660156 14.007812 -13.296875 15.0625 -12.859375 Z M 16.890625 -21.4375 "/></g></g></g><g fill="#767676" fill-opacity="1"><g transform="translate(74.934828, 29.802634)"><g><path d="M 4.203125 0.1875 C 2.765625 0.1875 1.664062 -0.160156 0.90625 -0.859375 C 0.15625 -1.566406 -0.21875 -2.566406 -0.21875 -3.859375 C -0.21875 -4.484375 -0.144531 -5.082031 0 -5.65625 L 3.375 -21.46875 L 8.046875 -22.109375 L 6.53125 -15 C 7.125 -15.351562 7.609375 -15.585938 7.984375 -15.703125 C 8.367188 -15.828125 8.75 -15.890625 9.125 -15.890625 C 11.613281 -15.890625 12.859375 -14.085938 12.859375 -10.484375 C 12.859375 -9.035156 12.578125 -7.484375 12.015625 -5.828125 C 11.453125 -4.171875 10.523438 -2.753906 9.234375 -1.578125 C 7.941406 -0.398438 6.265625 0.1875 4.203125 0.1875 Z M 5.96875 -2.875 C 6.625 -2.875 7.234375 -3.28125 7.796875 -4.09375 C 8.367188 -4.90625 8.820312 -5.914062 9.15625 -7.125 C 9.488281 -8.332031 9.65625 -9.492188 9.65625 -10.609375 C 9.65625 -11.453125 9.507812 -12.164062 9.21875 -12.75 C 8.925781 -13.34375 8.515625 -13.640625 7.984375 -13.640625 C 7.671875 -13.640625 7.316406 -13.59375 6.921875 -13.5 C 6.535156 -13.40625 6.269531 -13.265625 6.125 -13.078125 L 4.390625 -5.046875 C 4.328125 -4.796875 4.296875 -4.554688 4.296875 -4.328125 C 4.296875 -3.359375 4.851562 -2.875 5.96875 -2.875 Z M 5.96875 -2.875 "/></g></g></g><g fill="#767676" fill-opacity="1"><g transform="translate(88.952435, 29.802634)"><g><path d="M 4.609375 0.125 C 3.054688 0.125 1.828125 -0.273438 0.921875 -1.078125 C 0.015625 -1.878906 -0.4375 -3.140625 -0.4375 -4.859375 C -0.4375 -6.296875 -0.144531 -7.882812 0.4375 -9.625 C 1.03125 -11.375 1.976562 -12.882812 3.28125 -14.15625 C 4.582031 -15.4375 6.222656 -16.078125 8.203125 -16.078125 C 10.898438 -16.078125 12.25 -14.390625 12.25 -11.015625 L 12.25 -10.984375 C 12.3125 -10.960938 12.425781 -10.953125 12.59375 -10.953125 C 13.289062 -10.953125 14.09375 -11.132812 15 -11.5 C 15.90625 -11.875 16.726562 -12.328125 17.46875 -12.859375 L 17.75 -12 C 17.132812 -11.34375 16.335938 -10.785156 15.359375 -10.328125 C 14.378906 -9.878906 13.3125 -9.5625 12.15625 -9.375 C 11.988281 -7.457031 11.554688 -5.78125 10.859375 -4.34375 C 10.171875 -2.914062 9.273438 -1.8125 8.171875 -1.03125 C 7.078125 -0.257812 5.890625 0.125 4.609375 0.125 Z M 5.875 -2.71875 C 6.375 -2.71875 6.875 -3.003906 7.375 -3.578125 C 7.882812 -4.160156 8.328125 -4.953125 8.703125 -5.953125 C 9.085938 -6.953125 9.363281 -8.0625 9.53125 -9.28125 C 8.96875 -9.40625 8.6875 -9.847656 8.6875 -10.609375 C 8.6875 -11.472656 9.007812 -12.039062 9.65625 -12.3125 C 9.613281 -13.007812 9.507812 -13.488281 9.34375 -13.75 C 9.175781 -14.007812 8.882812 -14.140625 8.46875 -14.140625 C 7.769531 -14.140625 7.09375 -13.632812 6.4375 -12.625 C 5.789062 -11.613281 5.265625 -10.40625 4.859375 -9 C 4.460938 -7.59375 4.265625 -6.351562 4.265625 -5.28125 C 4.265625 -4.257812 4.378906 -3.578125 4.609375 -3.234375 C 4.835938 -2.890625 5.257812 -2.71875 5.875 -2.71875 Z M 5.875 -2.71875 "/></g></g></g><g fill="#767676" fill-opacity="1"><g transform="translate(102.812182, 29.802634)"><g><path d="M 3.125 0.1875 C 2.113281 0.1875 1.296875 -0.125 0.671875 -0.75 C 0.0546875 -1.382812 -0.25 -2.332031 -0.25 -3.59375 C -0.25 -4.125 -0.164062 -4.8125 0 -5.65625 L 2.140625 -15.78125 L 6.6875 -15.78125 L 4.421875 -5.046875 C 4.359375 -4.734375 4.328125 -4.441406 4.328125 -4.171875 C 4.328125 -3.304688 4.644531 -2.875 5.28125 -2.875 C 5.863281 -2.875 6.363281 -3.117188 6.78125 -3.609375 C 7.207031 -4.109375 7.546875 -4.789062 7.796875 -5.65625 L 9.953125 -15.78125 L 14.5 -15.78125 L 12.21875 -5.046875 C 12.132812 -4.734375 12.09375 -4.398438 12.09375 -4.046875 C 12.09375 -3.617188 12.191406 -3.316406 12.390625 -3.140625 C 12.585938 -2.960938 12.921875 -2.875 13.390625 -2.875 C 13.972656 -2.875 14.476562 -3.125 14.90625 -3.625 C 15.34375 -4.132812 15.691406 -4.8125 15.953125 -5.65625 L 17.265625 -5.65625 C 16.492188 -3.375 15.53125 -1.828125 14.375 -1.015625 C 13.226562 -0.210938 12.078125 0.1875 10.921875 0.1875 C 10.015625 0.1875 9.289062 -0.0625 8.75 -0.5625 C 8.21875 -1.070312 7.898438 -1.820312 7.796875 -2.8125 C 7.078125 -1.65625 6.320312 -0.863281 5.53125 -0.4375 C 4.75 -0.0195312 3.945312 0.1875 3.125 0.1875 Z M 3.125 0.1875 "/></g></g></g><g fill="#767676" fill-opacity="1"><g transform="translate(118.755628, 29.802634)"><g><path d="M 3.125 0.1875 C 2.113281 0.1875 1.296875 -0.125 0.671875 -0.75 C 0.0546875 -1.382812 -0.25 -2.332031 -0.25 -3.59375 C -0.25 -4.125 -0.164062 -4.8125 0 -5.65625 L 1.890625 -14.53125 L 0.859375 -14.53125 L 1.109375 -15.78125 L 2.140625 -15.78125 L 3.09375 -20.140625 L 7.765625 -20.78125 L 6.6875 -15.78125 L 8.59375 -15.78125 L 8.34375 -14.53125 L 6.4375 -14.53125 L 4.421875 -5.046875 C 4.335938 -4.734375 4.296875 -4.398438 4.296875 -4.046875 C 4.296875 -3.617188 4.394531 -3.316406 4.59375 -3.140625 C 4.789062 -2.960938 5.125 -2.875 5.59375 -2.875 C 6.195312 -2.875 6.757812 -3.128906 7.28125 -3.640625 C 7.8125 -4.160156 8.195312 -4.832031 8.4375 -5.65625 L 9.75 -5.65625 C 8.976562 -3.375 7.976562 -1.828125 6.75 -1.015625 C 5.53125 -0.210938 4.320312 0.1875 3.125 0.1875 Z M 3.125 0.1875 "/></g></g></g><g fill="#767676" fill-opacity="1"><g transform="translate(127.185138, 29.802634)"><g/></g></g><g fill="#767676" fill-opacity="1"><g transform="translate(134.036087, 29.802634)"><g><path d="M 10.140625 -21.6875 C 8.535156 -21.164062 7.296875 -20.296875 6.421875 -19.078125 C 5.546875 -17.867188 5.109375 -16.375 5.109375 -14.59375 C 5.109375 -13.789062 5.179688 -13.238281 5.328125 -12.9375 C 5.484375 -12.644531 5.5625 -12.46875 5.5625 -12.40625 C 3.300781 -12.40625 2.171875 -13.363281 2.171875 -15.28125 C 2.171875 -16.582031 2.671875 -17.890625 3.671875 -19.203125 C 4.671875 -20.523438 5.957031 -21.601562 7.53125 -22.4375 C 9.101562 -23.269531 10.664062 -23.6875 12.21875 -23.6875 C 13 -23.6875 13.800781 -23.535156 14.625 -23.234375 L 13.890625 -6.59375 L 20.84375 -23.234375 L 25.390625 -23.234375 L 22.078125 0 L 17.53125 0 L 19.546875 -14.171875 L 13.609375 0 L 9.28125 0 L 9.921875 -14.234375 L 4.640625 0 L 2.109375 0 Z M 10.140625 -21.6875 "/></g></g></g><g fill="#767676" fill-opacity="1"><g transform="translate(158.882613, 29.802634)"><g><path d="M 4.515625 0.1875 C 2.953125 0.1875 1.738281 -0.210938 0.875 -1.015625 C 0.0195312 -1.828125 -0.40625 -3.097656 -0.40625 -4.828125 C -0.40625 -6.285156 -0.125 -7.882812 0.4375 -9.625 C 1.007812 -11.375 1.9375 -12.882812 3.21875 -14.15625 C 4.5 -15.4375 6.128906 -16.078125 8.109375 -16.078125 C 10.429688 -16.078125 11.59375 -15.066406 11.59375 -13.046875 C 11.59375 -11.859375 11.253906 -10.769531 10.578125 -9.78125 C 9.898438 -8.800781 9.003906 -8.007812 7.890625 -7.40625 C 6.773438 -6.800781 5.585938 -6.457031 4.328125 -6.375 C 4.285156 -5.75 4.265625 -5.328125 4.265625 -5.109375 C 4.265625 -4.078125 4.441406 -3.378906 4.796875 -3.015625 C 5.160156 -2.648438 5.738281 -2.46875 6.53125 -2.46875 C 7.664062 -2.46875 8.640625 -2.726562 9.453125 -3.25 C 10.265625 -3.78125 11.15625 -4.582031 12.125 -5.65625 L 13.203125 -5.65625 C 10.859375 -1.757812 7.960938 0.1875 4.515625 0.1875 Z M 4.578125 -7.890625 C 5.359375 -7.929688 6.097656 -8.203125 6.796875 -8.703125 C 7.503906 -9.210938 8.070312 -9.859375 8.5 -10.640625 C 8.9375 -11.421875 9.15625 -12.242188 9.15625 -13.109375 C 9.15625 -13.972656 8.894531 -14.40625 8.375 -14.40625 C 7.613281 -14.40625 6.867188 -13.738281 6.140625 -12.40625 C 5.410156 -11.082031 4.890625 -9.578125 4.578125 -7.890625 Z M 4.578125 -7.890625 "/></g></g></g></svg>