<svg xmlns="http://www.w3.org/2000/svg" xmlns:xlink="http://www.w3.org/1999/xlink" width="1000" zoomAndPan="magnify" viewBox="0 0 750 225" height="300" preserveAspectRatio="xMidYMid meet" version="1.0"><defs><g/></defs><g fill="#767676" fill-opacity="1"><g transform="translate(77.445471, 143.404555)"><g><path d="M 20.53125 -56.984375 C 16.789062 -55.421875 13.898438 -53.070312 11.859375 -49.9375 C 9.816406 -46.8125 8.796875 -43.039062 8.796875 -38.625 C 8.796875 -36.5625 8.988281 -35.125 9.375 -34.3125 C 9.769531 -33.5 9.96875 -33.039062 9.96875 -32.9375 C 6.957031 -32.9375 4.707031 -33.5625 3.21875 -34.8125 C 1.738281 -36.070312 1 -38.15625 1 -41.0625 C 1 -44.632812 2.460938 -48.109375 5.390625 -51.484375 C 8.328125 -54.867188 12.085938 -57.609375 16.671875 -59.703125 C 21.253906 -61.796875 25.835938 -62.84375 30.421875 -62.84375 C 31.203125 -62.84375 32.316406 -62.789062 33.765625 -62.6875 L 28.40625 -37.703125 L 40.71875 -37.703125 L 46.09375 -62.6875 L 58.15625 -62.6875 L 44.828125 0 L 32.765625 0 L 39.46875 -31.5 L 27.15625 -31.5 L 20.453125 0 L 8.375 0 Z M 20.53125 -56.984375 "/></g></g></g><g fill="#767676" fill-opacity="1"><g transform="translate(133.167568, 143.404555)"><g><path d="M 14 -46.421875 C 12.15625 -46.421875 10.585938 -47.0625 9.296875 -48.34375 C 8.015625 -49.632812 7.375 -51.203125 7.375 -53.046875 C 7.375 -54.890625 8.015625 -56.46875 9.296875 -57.78125 C 10.585938 -59.09375 12.15625 -59.75 14 -59.75 C 15.84375 -59.75 17.421875 -59.09375 18.734375 -57.78125 C 20.046875 -56.46875 20.703125 -54.890625 20.703125 -53.046875 C 20.703125 -51.203125 20.046875 -49.632812 18.734375 -48.34375 C 17.421875 -47.0625 15.84375 -46.421875 14 -46.421875 Z M 8.296875 0.5 C 5.617188 0.5 3.453125 -0.335938 1.796875 -2.015625 C 0.148438 -3.691406 -0.671875 -6.203125 -0.671875 -9.546875 C -0.671875 -10.941406 -0.445312 -12.757812 0 -15 L 5.703125 -41.90625 L 17.765625 -41.90625 L 11.734375 -13.40625 C 11.503906 -12.570312 11.390625 -11.675781 11.390625 -10.71875 C 11.390625 -9.601562 11.65625 -8.804688 12.1875 -8.328125 C 12.71875 -7.859375 13.597656 -7.625 14.828125 -7.625 C 16.453125 -7.625 17.960938 -8.304688 19.359375 -9.671875 C 20.753906 -11.046875 21.757812 -12.820312 22.375 -15 L 25.890625 -15 C 23.828125 -8.96875 21.175781 -4.875 17.9375 -2.71875 C 14.695312 -0.570312 11.484375 0.5 8.296875 0.5 Z M 8.296875 0.5 "/></g></g></g><g fill="#767676" fill-opacity="1"><g transform="translate(155.540195, 143.404555)"><g><path d="M 3.4375 10.5625 C 2.9375 10.226562 2.6875 9.753906 2.6875 9.140625 C 2.6875 8.460938 2.851562 7.875 3.1875 7.375 C 3.519531 6.875 4.078125 6.203125 4.859375 5.359375 C 5.640625 4.523438 6.195312 3.851562 6.53125 3.34375 C 6.863281 2.84375 7.03125 2.234375 7.03125 1.515625 C 7.03125 0.898438 6.671875 0.335938 5.953125 -0.171875 C 3.328125 -1.847656 2.015625 -3.882812 2.015625 -6.28125 C 2.015625 -8.125 2.65625 -9.703125 3.9375 -11.015625 C 5.21875 -12.328125 6.78125 -12.984375 8.625 -12.984375 C 10.414062 -12.984375 11.8125 -12.394531 12.8125 -11.21875 C 13.820312 -10.050781 14.328125 -8.519531 14.328125 -6.625 C 14.328125 -4 13.332031 -1.039062 11.34375 2.25 C 9.363281 5.550781 6.726562 8.320312 3.4375 10.5625 Z M 3.4375 10.5625 "/></g></g></g><g fill="#767676" fill-opacity="1"><g transform="translate(173.63941, 143.404555)"><g/></g></g><g fill="#767676" fill-opacity="1"><g transform="translate(191.822405, 143.404555)"><g><path d="M 20.03125 -56.890625 C 16.28125 -55.390625 13.382812 -53.085938 11.34375 -49.984375 C 9.3125 -46.878906 8.296875 -43.09375 8.296875 -38.625 C 8.296875 -36.5625 8.488281 -35.125 8.875 -34.3125 C 9.269531 -33.5 9.46875 -33.039062 9.46875 -32.9375 C 6.445312 -32.9375 4.195312 -33.5625 2.71875 -34.8125 C 1.238281 -36.070312 0.5 -38.15625 0.5 -41.0625 C 0.5 -44.632812 1.960938 -48.109375 4.890625 -51.484375 C 7.828125 -54.867188 11.585938 -57.609375 16.171875 -59.703125 C 20.753906 -61.796875 25.335938 -62.84375 29.921875 -62.84375 C 30.703125 -62.84375 31.816406 -62.789062 33.265625 -62.6875 L 19.9375 0 L 7.875 0 Z M 20.03125 -56.890625 "/></g></g></g><g fill="#767676" fill-opacity="1"><g transform="translate(223.24464, 143.404555)"><g><path d="M 8.046875 -44.328125 C 9.210938 -45.554688 10.128906 -46.703125 10.796875 -47.765625 C 11.472656 -48.828125 11.8125 -49.691406 11.8125 -50.359375 C 11.8125 -50.753906 11.6875 -51.117188 11.4375 -51.453125 C 11.1875 -51.785156 10.8125 -52.148438 10.3125 -52.546875 C 9.53125 -53.160156 8.914062 -53.800781 8.46875 -54.46875 C 8.019531 -55.132812 7.796875 -56.03125 7.796875 -57.15625 C 7.796875 -58.882812 8.328125 -60.289062 9.390625 -61.375 C 10.453125 -62.46875 11.789062 -63.015625 13.40625 -63.015625 C 15.132812 -63.015625 16.539062 -62.46875 17.625 -61.375 C 18.71875 -60.289062 19.265625 -58.882812 19.265625 -57.15625 C 19.265625 -54.96875 18.359375 -52.578125 16.546875 -49.984375 C 14.734375 -47.390625 12.316406 -45.085938 9.296875 -43.078125 Z M 8.046875 -44.328125 "/></g></g></g><g fill="#767676" fill-opacity="1"><g transform="translate(243.187296, 143.404555)"><g><path d="M 50.953125 0.5 C 47.546875 0.5 45.046875 -0.40625 43.453125 -2.21875 C 41.859375 -4.03125 41.0625 -6.28125 41.0625 -8.96875 C 41.0625 -10.132812 41.203125 -11.457031 41.484375 -12.9375 C 41.765625 -14.425781 42.054688 -15.867188 42.359375 -17.265625 C 42.660156 -18.660156 42.867188 -19.550781 42.984375 -19.9375 C 43.429688 -21.894531 43.847656 -23.820312 44.234375 -25.71875 C 44.628906 -27.625 44.828125 -29.160156 44.828125 -30.328125 C 44.828125 -33.179688 43.820312 -34.609375 41.8125 -34.609375 C 40.363281 -34.609375 39.078125 -33.894531 37.953125 -32.46875 C 36.835938 -31.039062 35.945312 -29.1875 35.28125 -26.90625 L 29.578125 0 L 17.515625 0 L 23.625 -28.90625 C 23.789062 -29.582031 23.875 -30.28125 23.875 -31 C 23.875 -33.457031 23.039062 -34.6875 21.375 -34.6875 C 19.800781 -34.6875 18.441406 -33.972656 17.296875 -32.546875 C 16.160156 -31.128906 15.253906 -29.25 14.578125 -26.90625 L 8.875 0 L -3.1875 0 L 5.703125 -41.90625 L 17.765625 -41.90625 L 16.84375 -37.546875 C 19.6875 -40.722656 23.09375 -42.3125 27.0625 -42.3125 C 31.976562 -42.3125 34.859375 -39.910156 35.703125 -35.109375 C 38.773438 -39.859375 42.65625 -42.234375 47.34375 -42.234375 C 50.195312 -42.234375 52.457031 -41.453125 54.125 -39.890625 C 55.800781 -38.328125 56.640625 -35.953125 56.640625 -32.765625 C 56.640625 -31.140625 56.441406 -29.335938 56.046875 -27.359375 C 55.660156 -25.378906 55.109375 -22.960938 54.390625 -20.109375 C 53.941406 -18.378906 53.535156 -16.6875 53.171875 -15.03125 C 52.804688 -13.382812 52.625 -12.085938 52.625 -11.140625 C 52.625 -10.023438 52.875 -9.160156 53.375 -8.546875 C 53.882812 -7.929688 54.75 -7.625 55.96875 -7.625 C 57.644531 -7.625 58.984375 -8.222656 59.984375 -9.421875 C 60.992188 -10.628906 62.003906 -12.488281 63.015625 -15 L 66.53125 -15 C 64.46875 -8.851562 62.082031 -4.734375 59.375 -2.640625 C 56.664062 -0.546875 53.859375 0.5 50.953125 0.5 Z M 50.953125 0.5 "/></g></g></g><g fill="#767676" fill-opacity="1"><g transform="translate(306.199355, 143.404555)"><g/></g></g><g fill="#767676" fill-opacity="1"><g transform="translate(324.38235, 143.404555)"><g><path d="M 18.265625 9.546875 C 16.203125 9.546875 14.382812 9.378906 12.8125 9.046875 C 11.25 8.710938 9.894531 7.898438 8.75 6.609375 C 7.601562 5.328125 7.03125 3.347656 7.03125 0.671875 C 7.03125 -3.066406 8.160156 -8.09375 10.421875 -14.40625 C 12.691406 -20.71875 15.671875 -27.0625 19.359375 -33.4375 C 16.566406 -33.269531 14.359375 -32.847656 12.734375 -32.171875 C 11.117188 -31.503906 10.054688 -30.472656 9.546875 -29.078125 C 9.773438 -29.078125 10.015625 -28.796875 10.265625 -28.234375 C 10.515625 -27.679688 10.640625 -27.097656 10.640625 -26.484375 C 10.640625 -25.472656 10.191406 -24.675781 9.296875 -24.09375 C 8.398438 -23.507812 7.285156 -23.21875 5.953125 -23.21875 C 4.390625 -23.21875 3.128906 -23.632812 2.171875 -24.46875 C 1.222656 -25.300781 0.75 -26.503906 0.75 -28.078125 C 0.75 -29.972656 1.488281 -31.703125 2.96875 -33.265625 C 4.457031 -34.828125 6.515625 -36.066406 9.140625 -36.984375 C 11.765625 -37.910156 14.664062 -38.375 17.84375 -38.375 C 19.019531 -38.375 20.472656 -38.289062 22.203125 -38.125 C 26.785156 -45.382812 31.628906 -51.316406 36.734375 -55.921875 C 41.847656 -60.535156 46.726562 -62.84375 51.375 -62.84375 C 54.050781 -62.84375 56.253906 -62.453125 57.984375 -61.671875 L 44.828125 0 L 32.765625 0 L 39.21875 -30.421875 C 37.144531 -31.367188 35.242188 -32.066406 33.515625 -32.515625 C 31.785156 -32.960938 29.941406 -33.269531 27.984375 -33.4375 C 24.804688 -26.5625 22.195312 -19.535156 20.15625 -12.359375 C 18.113281 -5.179688 17.09375 0.554688 17.09375 4.859375 C 17.09375 6.984375 17.484375 8.546875 18.265625 9.546875 Z M 44.828125 -56.890625 C 42.429688 -55.609375 39.929688 -53.222656 37.328125 -49.734375 C 34.734375 -46.242188 32.207031 -42.007812 29.75 -37.03125 C 33.769531 -36.25 37.175781 -35.273438 39.96875 -34.109375 Z M 44.828125 -56.890625 "/></g></g></g><g fill="#767676" fill-opacity="1"><g transform="translate(380.355831, 143.404555)"><g><path d="M 10.0625 0.5 C 6.875 0.5 4.21875 -0.585938 2.09375 -2.765625 C -0.03125 -4.941406 -1.09375 -8.347656 -1.09375 -12.984375 C -1.09375 -17.117188 -0.269531 -21.460938 1.375 -26.015625 C 3.03125 -30.566406 5.488281 -34.421875 8.75 -37.578125 C 12.019531 -40.734375 15.921875 -42.3125 20.453125 -42.3125 C 22.734375 -42.3125 24.429688 -41.921875 25.546875 -41.140625 C 26.671875 -40.359375 27.234375 -39.328125 27.234375 -38.046875 L 27.234375 -37.703125 L 31.34375 -56.984375 L 43.734375 -58.65625 L 34.109375 -13.40625 C 33.878906 -12.570312 33.765625 -11.675781 33.765625 -10.71875 C 33.765625 -9.601562 34.03125 -8.804688 34.5625 -8.328125 C 35.09375 -7.859375 35.972656 -7.625 37.203125 -7.625 C 38.765625 -7.625 40.117188 -8.289062 41.265625 -9.625 C 42.410156 -10.96875 43.320312 -12.757812 44 -15 L 47.515625 -15 C 44.109375 -5 38.492188 0 30.671875 0 C 28.378906 0 26.519531 -0.613281 25.09375 -1.84375 C 23.664062 -3.070312 22.785156 -4.859375 22.453125 -7.203125 C 21.003906 -4.972656 19.257812 -3.128906 17.21875 -1.671875 C 15.175781 -0.222656 12.789062 0.5 10.0625 0.5 Z M 15.5 -7.625 C 16.84375 -7.625 18.195312 -8.238281 19.5625 -9.46875 C 20.9375 -10.695312 21.875 -12.398438 22.375 -14.578125 L 22.375 -15 L 26.484375 -34.1875 C 25.972656 -36.144531 24.828125 -37.125 23.046875 -37.125 C 20.804688 -37.125 18.789062 -35.820312 17 -33.21875 C 15.21875 -30.625 13.820312 -27.492188 12.8125 -23.828125 C 11.8125 -20.171875 11.3125 -16.945312 11.3125 -14.15625 C 11.3125 -11.363281 11.71875 -9.578125 12.53125 -8.796875 C 13.34375 -8.015625 14.332031 -7.625 15.5 -7.625 Z M 15.5 -7.625 "/></g></g></g><g fill="#767676" fill-opacity="1"><g transform="translate(424.346962, 143.404555)"><g><path d="M 5.703125 -41.90625 L 17.765625 -41.90625 L 16.671875 -36.703125 C 18.578125 -38.378906 20.296875 -39.664062 21.828125 -40.5625 C 23.367188 -41.457031 25.03125 -41.90625 26.8125 -41.90625 C 28.601562 -41.90625 30.015625 -41.289062 31.046875 -40.0625 C 32.078125 -38.832031 32.59375 -37.347656 32.59375 -35.609375 C 32.59375 -33.992188 32.0625 -32.570312 31 -31.34375 C 29.9375 -30.113281 28.457031 -29.5 26.5625 -29.5 C 25.332031 -29.5 24.507812 -29.789062 24.09375 -30.375 C 23.675781 -30.957031 23.351562 -31.8125 23.125 -32.9375 C 22.957031 -33.65625 22.789062 -34.179688 22.625 -34.515625 C 22.457031 -34.859375 22.148438 -35.03125 21.703125 -35.03125 C 20.523438 -35.03125 19.53125 -34.789062 18.71875 -34.3125 C 17.914062 -33.84375 16.875 -33.019531 15.59375 -31.84375 L 8.875 0 L -3.1875 0 Z M 5.703125 -41.90625 "/></g></g></g><g fill="#767676" fill-opacity="1"><g transform="translate(455.853008, 143.404555)"><g><path d="M 14 -46.421875 C 12.15625 -46.421875 10.585938 -47.0625 9.296875 -48.34375 C 8.015625 -49.632812 7.375 -51.203125 7.375 -53.046875 C 7.375 -54.890625 8.015625 -56.46875 9.296875 -57.78125 C 10.585938 -59.09375 12.15625 -59.75 14 -59.75 C 15.84375 -59.75 17.421875 -59.09375 18.734375 -57.78125 C 20.046875 -56.46875 20.703125 -54.890625 20.703125 -53.046875 C 20.703125 -51.203125 20.046875 -49.632812 18.734375 -48.34375 C 17.421875 -47.0625 15.84375 -46.421875 14 -46.421875 Z M 8.296875 0.5 C 5.617188 0.5 3.453125 -0.335938 1.796875 -2.015625 C 0.148438 -3.691406 -0.671875 -6.203125 -0.671875 -9.546875 C -0.671875 -10.941406 -0.445312 -12.757812 0 -15 L 5.703125 -41.90625 L 17.765625 -41.90625 L 11.734375 -13.40625 C 11.503906 -12.570312 11.390625 -11.675781 11.390625 -10.71875 C 11.390625 -9.601562 11.65625 -8.804688 12.1875 -8.328125 C 12.71875 -7.859375 13.597656 -7.625 14.828125 -7.625 C 16.453125 -7.625 17.960938 -8.304688 19.359375 -9.671875 C 20.753906 -11.046875 21.757812 -12.820312 22.375 -15 L 25.890625 -15 C 23.828125 -8.96875 21.175781 -4.875 17.9375 -2.71875 C 14.695312 -0.570312 11.484375 0.5 8.296875 0.5 Z M 8.296875 0.5 "/></g></g></g><g fill="#767676" fill-opacity="1"><g transform="translate(478.225636, 143.404555)"><g><path d="M 10.0625 0.5 C 6.875 0.5 4.21875 -0.585938 2.09375 -2.765625 C -0.03125 -4.941406 -1.09375 -8.347656 -1.09375 -12.984375 C -1.09375 -17.117188 -0.269531 -21.460938 1.375 -26.015625 C 3.03125 -30.566406 5.488281 -34.421875 8.75 -37.578125 C 12.019531 -40.734375 15.921875 -42.3125 20.453125 -42.3125 C 22.734375 -42.3125 24.429688 -41.921875 25.546875 -41.140625 C 26.671875 -40.359375 27.234375 -39.328125 27.234375 -38.046875 L 27.234375 -37.453125 L 28.15625 -41.90625 L 40.21875 -41.90625 L 34.1875 -13.40625 C 33.96875 -12.570312 33.859375 -11.675781 33.859375 -10.71875 C 33.859375 -8.320312 35.003906 -7.125 37.296875 -7.125 C 38.859375 -7.125 40.210938 -7.847656 41.359375 -9.296875 C 42.503906 -10.753906 43.410156 -12.65625 44.078125 -15 L 47.59375 -15 C 45.53125 -8.96875 42.972656 -4.875 39.921875 -2.71875 C 36.878906 -0.570312 33.820312 0.5 30.75 0.5 C 28.40625 0.5 26.519531 -0.15625 25.09375 -1.46875 C 23.664062 -2.78125 22.816406 -4.691406 22.546875 -7.203125 C 20.921875 -4.910156 19.113281 -3.050781 17.125 -1.625 C 15.144531 -0.207031 12.789062 0.5 10.0625 0.5 Z M 15.5 -7.625 C 16.894531 -7.625 18.273438 -8.28125 19.640625 -9.59375 C 21.015625 -10.90625 21.953125 -12.707031 22.453125 -15 L 26.484375 -33.9375 C 26.484375 -34.664062 26.203125 -35.378906 25.640625 -36.078125 C 25.078125 -36.773438 24.210938 -37.125 23.046875 -37.125 C 20.804688 -37.125 18.789062 -35.820312 17 -33.21875 C 15.21875 -30.625 13.820312 -27.492188 12.8125 -23.828125 C 11.8125 -20.171875 11.3125 -16.945312 11.3125 -14.15625 C 11.3125 -11.363281 11.71875 -9.578125 12.53125 -8.796875 C 13.34375 -8.015625 14.332031 -7.625 15.5 -7.625 Z M 15.5 -7.625 "/></g></g></g><g fill="#767676" fill-opacity="1"><g transform="translate(522.300563, 143.404555)"><g><path d="M 30.25 0.5 C 26.84375 0.5 24.34375 -0.40625 22.75 -2.21875 C 21.15625 -4.03125 20.359375 -6.28125 20.359375 -8.96875 C 20.359375 -10.132812 20.5 -11.457031 20.78125 -12.9375 C 21.0625 -14.425781 21.351562 -15.867188 21.65625 -17.265625 C 21.96875 -18.660156 22.179688 -19.550781 22.296875 -19.9375 C 22.734375 -21.894531 23.148438 -23.820312 23.546875 -25.71875 C 23.941406 -27.625 24.140625 -29.160156 24.140625 -30.328125 C 24.140625 -33.179688 23.128906 -34.609375 21.109375 -34.609375 C 19.660156 -34.609375 18.378906 -33.894531 17.265625 -32.46875 C 16.148438 -31.039062 15.253906 -29.1875 14.578125 -26.90625 L 8.875 0 L -3.1875 0 L 5.703125 -41.90625 L 17.765625 -41.90625 L 16.84375 -37.546875 C 19.632812 -40.671875 22.898438 -42.234375 26.640625 -42.234375 C 29.492188 -42.234375 31.757812 -41.453125 33.4375 -39.890625 C 35.113281 -38.328125 35.953125 -35.953125 35.953125 -32.765625 C 35.953125 -31.140625 35.753906 -29.335938 35.359375 -27.359375 C 34.972656 -25.378906 34.414062 -22.960938 33.6875 -20.109375 C 33.238281 -18.378906 32.832031 -16.6875 32.46875 -15.03125 C 32.101562 -13.382812 31.921875 -12.085938 31.921875 -11.140625 C 31.921875 -10.023438 32.171875 -9.160156 32.671875 -8.546875 C 33.179688 -7.929688 34.050781 -7.625 35.28125 -7.625 C 36.957031 -7.625 38.296875 -8.222656 39.296875 -9.421875 C 40.304688 -10.628906 41.3125 -12.488281 42.3125 -15 L 45.84375 -15 C 43.769531 -8.851562 41.378906 -4.734375 38.671875 -2.640625 C 35.960938 -0.546875 33.15625 0.5 30.25 0.5 Z M 30.25 0.5 "/></g></g></g><g fill="#767676" fill-opacity="1"><g transform="translate(564.615829, 143.404555)"><g><path d="M 30.25 0.5 C 26.84375 0.5 24.34375 -0.40625 22.75 -2.21875 C 21.15625 -4.03125 20.359375 -6.28125 20.359375 -8.96875 C 20.359375 -10.132812 20.5 -11.457031 20.78125 -12.9375 C 21.0625 -14.425781 21.351562 -15.867188 21.65625 -17.265625 C 21.96875 -18.660156 22.179688 -19.550781 22.296875 -19.9375 C 22.734375 -21.894531 23.148438 -23.820312 23.546875 -25.71875 C 23.941406 -27.625 24.140625 -29.160156 24.140625 -30.328125 C 24.140625 -33.179688 23.128906 -34.609375 21.109375 -34.609375 C 19.660156 -34.609375 18.378906 -33.894531 17.265625 -32.46875 C 16.148438 -31.039062 15.253906 -29.1875 14.578125 -26.90625 L 8.875 0 L -3.1875 0 L 5.703125 -41.90625 L 17.765625 -41.90625 L 16.84375 -37.546875 C 19.632812 -40.671875 22.898438 -42.234375 26.640625 -42.234375 C 29.492188 -42.234375 31.757812 -41.453125 33.4375 -39.890625 C 35.113281 -38.328125 35.953125 -35.953125 35.953125 -32.765625 C 35.953125 -31.140625 35.753906 -29.335938 35.359375 -27.359375 C 34.972656 -25.378906 34.414062 -22.960938 33.6875 -20.109375 C 33.238281 -18.378906 32.832031 -16.6875 32.46875 -15.03125 C 32.101562 -13.382812 31.921875 -12.085938 31.921875 -11.140625 C 31.921875 -10.023438 32.171875 -9.160156 32.671875 -8.546875 C 33.179688 -7.929688 34.050781 -7.625 35.28125 -7.625 C 36.957031 -7.625 38.296875 -8.222656 39.296875 -9.421875 C 40.304688 -10.628906 41.3125 -12.488281 42.3125 -15 L 45.84375 -15 C 43.769531 -8.851562 41.378906 -4.734375 38.671875 -2.640625 C 35.960938 -0.546875 33.15625 0.5 30.25 0.5 Z M 30.25 0.5 "/></g></g></g><g fill="#767676" fill-opacity="1"><g transform="translate(606.931127, 143.404555)"><g><path d="M 10.0625 0.5 C 6.875 0.5 4.21875 -0.585938 2.09375 -2.765625 C -0.03125 -4.941406 -1.09375 -8.347656 -1.09375 -12.984375 C -1.09375 -17.117188 -0.269531 -21.460938 1.375 -26.015625 C 3.03125 -30.566406 5.488281 -34.421875 8.75 -37.578125 C 12.019531 -40.734375 15.921875 -42.3125 20.453125 -42.3125 C 22.734375 -42.3125 24.429688 -41.921875 25.546875 -41.140625 C 26.671875 -40.359375 27.234375 -39.328125 27.234375 -38.046875 L 27.234375 -37.453125 L 28.15625 -41.90625 L 40.21875 -41.90625 L 34.1875 -13.40625 C 33.96875 -12.570312 33.859375 -11.675781 33.859375 -10.71875 C 33.859375 -8.320312 35.003906 -7.125 37.296875 -7.125 C 38.859375 -7.125 40.210938 -7.847656 41.359375 -9.296875 C 42.503906 -10.753906 43.410156 -12.65625 44.078125 -15 L 47.59375 -15 C 45.53125 -8.96875 42.972656 -4.875 39.921875 -2.71875 C 36.878906 -0.570312 33.820312 0.5 30.75 0.5 C 28.40625 0.5 26.519531 -0.15625 25.09375 -1.46875 C 23.664062 -2.78125 22.816406 -4.691406 22.546875 -7.203125 C 20.921875 -4.910156 19.113281 -3.050781 17.125 -1.625 C 15.144531 -0.207031 12.789062 0.5 10.0625 0.5 Z M 15.5 -7.625 C 16.894531 -7.625 18.273438 -8.28125 19.640625 -9.59375 C 21.015625 -10.90625 21.953125 -12.707031 22.453125 -15 L 26.484375 -33.9375 C 26.484375 -34.664062 26.203125 -35.378906 25.640625 -36.078125 C 25.078125 -36.773438 24.210938 -37.125 23.046875 -37.125 C 20.804688 -37.125 18.789062 -35.820312 17 -33.21875 C 15.21875 -30.625 13.820312 -27.492188 12.8125 -23.828125 C 11.8125 -20.171875 11.3125 -16.945312 11.3125 -14.15625 C 11.3125 -11.363281 11.71875 -9.578125 12.53125 -8.796875 C 13.34375 -8.015625 14.332031 -7.625 15.5 -7.625 Z M 15.5 -7.625 "/></g></g></g><g fill="#767676" fill-opacity="1"><g transform="translate(651.006085, 143.404555)"><g><path d="M 14.578125 -61.25 L 27.484375 -63.015625 L 15.328125 -19.359375 L 8.21875 -19.359375 Z M 9.390625 0.5 C 7.546875 0.5 5.96875 -0.15625 4.65625 -1.46875 C 3.34375 -2.78125 2.6875 -4.359375 2.6875 -6.203125 C 2.6875 -8.046875 3.34375 -9.609375 4.65625 -10.890625 C 5.96875 -12.179688 7.546875 -12.828125 9.390625 -12.828125 C 11.234375 -12.828125 12.796875 -12.179688 14.078125 -10.890625 C 15.359375 -9.609375 16 -8.046875 16 -6.203125 C 16 -4.359375 15.359375 -2.78125 14.078125 -1.46875 C 12.796875 -0.15625 11.234375 0.5 9.390625 0.5 Z M 9.390625 0.5 "/></g></g></g></svg>