<svg xmlns="http://www.w3.org/2000/svg" xmlns:xlink="http://www.w3.org/1999/xlink" width="300" zoomAndPan="magnify" viewBox="0 0 224.87999 37.5" height="50" preserveAspectRatio="xMidYMid meet" version="1.0"><defs><g/></defs><g fill="#767676" fill-opacity="1"><g transform="translate(44.983939, 29.975329)"><g><path d="M 7.515625 0.5 C 5.140625 0.5 3.390625 -0.0976562 2.265625 -1.296875 C 1.148438 -2.492188 0.59375 -4.484375 0.59375 -7.265625 C 0.59375 -9.472656 0.96875 -11.847656 1.71875 -14.390625 C 2.46875 -16.941406 3.664062 -19.128906 5.3125 -20.953125 C 6.96875 -22.773438 9.070312 -23.6875 11.625 -23.6875 C 13.195312 -23.6875 14.46875 -23.335938 15.4375 -22.640625 C 16.40625 -21.941406 16.890625 -20.878906 16.890625 -19.453125 C 16.890625 -18.546875 16.710938 -17.832031 16.359375 -17.3125 C 16.003906 -16.800781 15.445312 -16.546875 14.6875 -16.546875 C 13.925781 -16.546875 13.328125 -16.820312 12.890625 -17.375 C 13.265625 -17.5625 13.597656 -17.9375 13.890625 -18.5 C 14.191406 -19.070312 14.34375 -19.660156 14.34375 -20.265625 C 14.34375 -20.835938 14.1875 -21.300781 13.875 -21.65625 C 13.570312 -22.019531 13.082031 -22.203125 12.40625 -22.203125 C 11.289062 -22.203125 10.226562 -21.4375 9.21875 -19.90625 C 8.207031 -18.382812 7.390625 -16.460938 6.765625 -14.140625 C 6.148438 -11.828125 5.84375 -9.597656 5.84375 -7.453125 C 5.84375 -5.847656 6.113281 -4.625 6.65625 -3.78125 C 7.207031 -2.945312 8.195312 -2.53125 9.625 -2.53125 C 10.875 -2.53125 12.023438 -2.800781 13.078125 -3.34375 C 14.128906 -3.894531 15.03125 -4.675781 15.78125 -5.6875 L 16.515625 -5.375 C 15.984375 -4.039062 15.203125 -2.929688 14.171875 -2.046875 C 13.140625 -1.160156 12.035156 -0.515625 10.859375 -0.109375 C 9.679688 0.296875 8.566406 0.5 7.515625 0.5 Z M 7.515625 0.5 "/></g></g></g><g fill="#767676" fill-opacity="1"><g transform="translate(60.674816, 29.975329)"><g><path d="M 4.609375 0.125 C 3.054688 0.125 1.828125 -0.273438 0.921875 -1.078125 C 0.015625 -1.878906 -0.4375 -3.140625 -0.4375 -4.859375 C -0.4375 -6.296875 -0.144531 -7.882812 0.4375 -9.625 C 1.03125 -11.375 1.976562 -12.882812 3.28125 -14.15625 C 4.582031 -15.4375 6.222656 -16.078125 8.203125 -16.078125 C 10.898438 -16.078125 12.25 -14.390625 12.25 -11.015625 L 12.25 -10.984375 C 12.3125 -10.960938 12.425781 -10.953125 12.59375 -10.953125 C 13.289062 -10.953125 14.09375 -11.132812 15 -11.5 C 15.90625 -11.875 16.726562 -12.328125 17.46875 -12.859375 L 17.75 -12 C 17.132812 -11.34375 16.335938 -10.785156 15.359375 -10.328125 C 14.378906 -9.878906 13.3125 -9.5625 12.15625 -9.375 C 11.988281 -7.457031 11.554688 -5.78125 10.859375 -4.34375 C 10.171875 -2.914062 9.273438 -1.8125 8.171875 -1.03125 C 7.078125 -0.257812 5.890625 0.125 4.609375 0.125 Z M 5.875 -2.71875 C 6.375 -2.71875 6.875 -3.003906 7.375 -3.578125 C 7.882812 -4.160156 8.328125 -4.953125 8.703125 -5.953125 C 9.085938 -6.953125 9.363281 -8.0625 9.53125 -9.28125 C 8.96875 -9.40625 8.6875 -9.847656 8.6875 -10.609375 C 8.6875 -11.472656 9.007812 -12.039062 9.65625 -12.3125 C 9.613281 -13.007812 9.507812 -13.488281 9.34375 -13.75 C 9.175781 -14.007812 8.882812 -14.140625 8.46875 -14.140625 C 7.769531 -14.140625 7.09375 -13.632812 6.4375 -12.625 C 5.789062 -11.613281 5.265625 -10.40625 4.859375 -9 C 4.460938 -7.59375 4.265625 -6.351562 4.265625 -5.28125 C 4.265625 -4.257812 4.378906 -3.578125 4.609375 -3.234375 C 4.835938 -2.890625 5.257812 -2.71875 5.875 -2.71875 Z M 5.875 -2.71875 "/></g></g></g><g fill="#767676" fill-opacity="1"><g transform="translate(74.534563, 29.975329)"><g><path d="M 11.40625 0.1875 C 10.113281 0.1875 9.164062 -0.148438 8.5625 -0.828125 C 7.96875 -1.515625 7.671875 -2.363281 7.671875 -3.375 C 7.671875 -3.820312 7.722656 -4.320312 7.828125 -4.875 C 7.929688 -5.4375 8.039062 -5.976562 8.15625 -6.5 C 8.28125 -7.03125 8.363281 -7.367188 8.40625 -7.515625 C 8.570312 -8.253906 8.726562 -8.976562 8.875 -9.6875 C 9.019531 -10.40625 9.09375 -10.988281 9.09375 -11.4375 C 9.09375 -12.507812 8.710938 -13.046875 7.953125 -13.046875 C 7.410156 -13.046875 6.925781 -12.773438 6.5 -12.234375 C 6.082031 -11.703125 5.75 -11.003906 5.5 -10.140625 L 3.34375 0 L -1.203125 0 L 2.140625 -15.78125 L 6.6875 -15.78125 L 6.34375 -14.140625 C 7.394531 -15.328125 8.628906 -15.921875 10.046875 -15.921875 C 11.117188 -15.921875 11.96875 -15.625 12.59375 -15.03125 C 13.226562 -14.4375 13.546875 -13.539062 13.546875 -12.34375 C 13.546875 -11.738281 13.472656 -11.0625 13.328125 -10.3125 C 13.179688 -9.5625 12.96875 -8.648438 12.6875 -7.578125 C 12.519531 -6.921875 12.367188 -6.28125 12.234375 -5.65625 C 12.097656 -5.039062 12.03125 -4.554688 12.03125 -4.203125 C 12.03125 -3.773438 12.125 -3.445312 12.3125 -3.21875 C 12.5 -2.988281 12.828125 -2.875 13.296875 -2.875 C 13.921875 -2.875 14.421875 -3.097656 14.796875 -3.546875 C 15.179688 -4.003906 15.566406 -4.707031 15.953125 -5.65625 L 17.265625 -5.65625 C 16.492188 -3.332031 15.597656 -1.773438 14.578125 -0.984375 C 13.554688 -0.203125 12.5 0.1875 11.40625 0.1875 Z M 11.40625 0.1875 "/></g></g></g><g fill="#767676" fill-opacity="1"><g transform="translate(90.478008, 29.975329)"><g><path d="M 3.125 0.1875 C 2.113281 0.1875 1.296875 -0.125 0.671875 -0.75 C 0.0546875 -1.382812 -0.25 -2.332031 -0.25 -3.59375 C -0.25 -4.125 -0.164062 -4.8125 0 -5.65625 L 1.890625 -14.53125 L 0.859375 -14.53125 L 1.109375 -15.78125 L 2.140625 -15.78125 L 3.09375 -20.140625 L 7.765625 -20.78125 L 6.6875 -15.78125 L 8.59375 -15.78125 L 8.34375 -14.53125 L 6.4375 -14.53125 L 4.421875 -5.046875 C 4.335938 -4.734375 4.296875 -4.398438 4.296875 -4.046875 C 4.296875 -3.617188 4.394531 -3.316406 4.59375 -3.140625 C 4.789062 -2.960938 5.125 -2.875 5.59375 -2.875 C 6.195312 -2.875 6.757812 -3.128906 7.28125 -3.640625 C 7.8125 -4.160156 8.195312 -4.832031 8.4375 -5.65625 L 9.75 -5.65625 C 8.976562 -3.375 7.976562 -1.828125 6.75 -1.015625 C 5.53125 -0.210938 4.320312 0.1875 3.125 0.1875 Z M 3.125 0.1875 "/></g></g></g><g fill="#767676" fill-opacity="1"><g transform="translate(98.907519, 29.975329)"><g><path d="M 3.796875 0.1875 C 2.585938 0.1875 1.582031 -0.222656 0.78125 -1.046875 C -0.0078125 -1.867188 -0.40625 -3.148438 -0.40625 -4.890625 C -0.40625 -6.453125 -0.0976562 -8.085938 0.515625 -9.796875 C 1.140625 -11.515625 2.066406 -12.96875 3.296875 -14.15625 C 4.523438 -15.351562 5.992188 -15.953125 7.703125 -15.953125 C 8.566406 -15.953125 9.207031 -15.800781 9.625 -15.5 C 10.050781 -15.207031 10.265625 -14.820312 10.265625 -14.34375 L 10.265625 -14.109375 L 10.609375 -15.78125 L 15.15625 -15.78125 L 12.890625 -5.046875 C 12.796875 -4.734375 12.75 -4.398438 12.75 -4.046875 C 12.75 -3.140625 13.179688 -2.6875 14.046875 -2.6875 C 14.640625 -2.6875 15.148438 -2.957031 15.578125 -3.5 C 16.015625 -4.050781 16.359375 -4.769531 16.609375 -5.65625 L 17.9375 -5.65625 C 17.15625 -3.375 16.191406 -1.828125 15.046875 -1.015625 C 13.898438 -0.210938 12.75 0.1875 11.59375 0.1875 C 10.707031 0.1875 9.992188 -0.0546875 9.453125 -0.546875 C 8.921875 -1.046875 8.601562 -1.769531 8.5 -2.71875 C 7.882812 -1.851562 7.203125 -1.148438 6.453125 -0.609375 C 5.710938 -0.078125 4.828125 0.1875 3.796875 0.1875 Z M 5.84375 -2.875 C 6.363281 -2.875 6.878906 -3.117188 7.390625 -3.609375 C 7.910156 -4.109375 8.269531 -4.789062 8.46875 -5.65625 L 9.984375 -12.796875 C 9.984375 -13.066406 9.875 -13.332031 9.65625 -13.59375 C 9.445312 -13.851562 9.125 -13.984375 8.6875 -13.984375 C 7.84375 -13.984375 7.082031 -13.492188 6.40625 -12.515625 C 5.738281 -11.535156 5.210938 -10.359375 4.828125 -8.984375 C 4.453125 -7.609375 4.265625 -6.394531 4.265625 -5.34375 C 4.265625 -4.28125 4.414062 -3.601562 4.71875 -3.3125 C 5.019531 -3.019531 5.394531 -2.875 5.84375 -2.875 Z M 5.84375 -2.875 "/></g></g></g><g fill="#767676" fill-opacity="1"><g transform="translate(115.51396, 29.975329)"><g><path d="M 4.515625 0.1875 C 2.953125 0.1875 1.738281 -0.210938 0.875 -1.015625 C 0.0195312 -1.828125 -0.40625 -3.097656 -0.40625 -4.828125 C -0.40625 -6.285156 -0.117188 -7.882812 0.453125 -9.625 C 1.035156 -11.375 1.960938 -12.882812 3.234375 -14.15625 C 4.503906 -15.4375 6.117188 -16.078125 8.078125 -16.078125 C 9.347656 -16.078125 10.25 -15.800781 10.78125 -15.25 C 11.320312 -14.707031 11.59375 -14.015625 11.59375 -13.171875 C 11.59375 -12.429688 11.429688 -11.859375 11.109375 -11.453125 C 10.796875 -11.054688 10.398438 -10.859375 9.921875 -10.859375 C 9.554688 -10.859375 9.1875 -10.984375 8.8125 -11.234375 C 9.0625 -11.929688 9.1875 -12.554688 9.1875 -13.109375 C 9.1875 -13.503906 9.113281 -13.816406 8.96875 -14.046875 C 8.820312 -14.285156 8.601562 -14.40625 8.3125 -14.40625 C 7.675781 -14.40625 7.039062 -13.890625 6.40625 -12.859375 C 5.78125 -11.828125 5.265625 -10.570312 4.859375 -9.09375 C 4.460938 -7.625 4.265625 -6.296875 4.265625 -5.109375 C 4.265625 -4.078125 4.441406 -3.378906 4.796875 -3.015625 C 5.160156 -2.648438 5.738281 -2.46875 6.53125 -2.46875 C 7.664062 -2.46875 8.640625 -2.726562 9.453125 -3.25 C 10.265625 -3.78125 11.15625 -4.582031 12.125 -5.65625 L 13.203125 -5.65625 C 10.859375 -1.757812 7.960938 0.1875 4.515625 0.1875 Z M 4.515625 0.1875 "/></g></g></g><g fill="#767676" fill-opacity="1"><g transform="translate(127.637296, 29.975329)"><g><path d="M 3.125 0.1875 C 2.113281 0.1875 1.296875 -0.125 0.671875 -0.75 C 0.0546875 -1.382812 -0.25 -2.332031 -0.25 -3.59375 C -0.25 -4.125 -0.164062 -4.8125 0 -5.65625 L 1.890625 -14.53125 L 0.859375 -14.53125 L 1.109375 -15.78125 L 2.140625 -15.78125 L 3.09375 -20.140625 L 7.765625 -20.78125 L 6.6875 -15.78125 L 8.59375 -15.78125 L 8.34375 -14.53125 L 6.4375 -14.53125 L 4.421875 -5.046875 C 4.335938 -4.734375 4.296875 -4.398438 4.296875 -4.046875 C 4.296875 -3.617188 4.394531 -3.316406 4.59375 -3.140625 C 4.789062 -2.960938 5.125 -2.875 5.59375 -2.875 C 6.195312 -2.875 6.757812 -3.128906 7.28125 -3.640625 C 7.8125 -4.160156 8.195312 -4.832031 8.4375 -5.65625 L 9.75 -5.65625 C 8.976562 -3.375 7.976562 -1.828125 6.75 -1.015625 C 5.53125 -0.210938 4.320312 0.1875 3.125 0.1875 Z M 3.125 0.1875 "/></g></g></g><g fill="#767676" fill-opacity="1"><g transform="translate(136.066807, 29.975329)"><g/></g></g><g fill="#767676" fill-opacity="1"><g transform="translate(142.917756, 29.975329)"><g><path d="M 10.140625 -21.6875 C 8.535156 -21.164062 7.296875 -20.296875 6.421875 -19.078125 C 5.546875 -17.867188 5.109375 -16.375 5.109375 -14.59375 C 5.109375 -13.789062 5.179688 -13.238281 5.328125 -12.9375 C 5.484375 -12.644531 5.5625 -12.46875 5.5625 -12.40625 C 3.300781 -12.40625 2.171875 -13.363281 2.171875 -15.28125 C 2.171875 -16.582031 2.671875 -17.890625 3.671875 -19.203125 C 4.671875 -20.523438 5.957031 -21.601562 7.53125 -22.4375 C 9.101562 -23.269531 10.664062 -23.6875 12.21875 -23.6875 C 13 -23.6875 13.800781 -23.535156 14.625 -23.234375 L 13.890625 -6.59375 L 20.84375 -23.234375 L 25.390625 -23.234375 L 22.078125 0 L 17.53125 0 L 19.546875 -14.171875 L 13.609375 0 L 9.28125 0 L 9.921875 -14.234375 L 4.640625 0 L 2.109375 0 Z M 10.140625 -21.6875 "/></g></g></g><g fill="#767676" fill-opacity="1"><g transform="translate(167.764282, 29.975329)"><g><path d="M 4.515625 0.1875 C 2.953125 0.1875 1.738281 -0.210938 0.875 -1.015625 C 0.0195312 -1.828125 -0.40625 -3.097656 -0.40625 -4.828125 C -0.40625 -6.285156 -0.125 -7.882812 0.4375 -9.625 C 1.007812 -11.375 1.9375 -12.882812 3.21875 -14.15625 C 4.5 -15.4375 6.128906 -16.078125 8.109375 -16.078125 C 10.429688 -16.078125 11.59375 -15.066406 11.59375 -13.046875 C 11.59375 -11.859375 11.253906 -10.769531 10.578125 -9.78125 C 9.898438 -8.800781 9.003906 -8.007812 7.890625 -7.40625 C 6.773438 -6.800781 5.585938 -6.457031 4.328125 -6.375 C 4.285156 -5.75 4.265625 -5.328125 4.265625 -5.109375 C 4.265625 -4.078125 4.441406 -3.378906 4.796875 -3.015625 C 5.160156 -2.648438 5.738281 -2.46875 6.53125 -2.46875 C 7.664062 -2.46875 8.640625 -2.726562 9.453125 -3.25 C 10.265625 -3.78125 11.15625 -4.582031 12.125 -5.65625 L 13.203125 -5.65625 C 10.859375 -1.757812 7.960938 0.1875 4.515625 0.1875 Z M 4.578125 -7.890625 C 5.359375 -7.929688 6.097656 -8.203125 6.796875 -8.703125 C 7.503906 -9.210938 8.070312 -9.859375 8.5 -10.640625 C 8.9375 -11.421875 9.15625 -12.242188 9.15625 -13.109375 C 9.15625 -13.972656 8.894531 -14.40625 8.375 -14.40625 C 7.613281 -14.40625 6.867188 -13.738281 6.140625 -12.40625 C 5.410156 -11.082031 4.890625 -9.578125 4.578125 -7.890625 Z M 4.578125 -7.890625 "/></g></g></g></svg>