<svg xmlns="http://www.w3.org/2000/svg" xmlns:xlink="http://www.w3.org/1999/xlink" width="300" zoomAndPan="magnify" viewBox="0 0 224.87999 30.000001" height="40" preserveAspectRatio="xMidYMid meet" version="1.0"><defs><g/></defs><g fill="#767676" fill-opacity="1"><g transform="translate(81.105565, 26.941245)"><g><path d="M 5.53125 0.375 C 3.78125 0.375 2.492188 -0.0664062 1.671875 -0.953125 C 0.847656 -1.835938 0.4375 -3.300781 0.4375 -5.34375 C 0.4375 -6.96875 0.710938 -8.710938 1.265625 -10.578125 C 1.816406 -12.453125 2.695312 -14.054688 3.90625 -15.390625 C 5.125 -16.734375 6.671875 -17.40625 8.546875 -17.40625 C 9.703125 -17.40625 10.632812 -17.148438 11.34375 -16.640625 C 12.0625 -16.128906 12.421875 -15.347656 12.421875 -14.296875 C 12.421875 -13.628906 12.285156 -13.109375 12.015625 -12.734375 C 11.753906 -12.359375 11.347656 -12.171875 10.796875 -12.171875 C 10.234375 -12.171875 9.789062 -12.367188 9.46875 -12.765625 C 9.75 -12.910156 10 -13.191406 10.21875 -13.609375 C 10.4375 -14.023438 10.546875 -14.457031 10.546875 -14.90625 C 10.546875 -15.320312 10.429688 -15.660156 10.203125 -15.921875 C 9.984375 -16.191406 9.625 -16.328125 9.125 -16.328125 C 8.300781 -16.328125 7.519531 -15.765625 6.78125 -14.640625 C 6.039062 -13.515625 5.441406 -12.097656 4.984375 -10.390625 C 4.523438 -8.691406 4.296875 -7.054688 4.296875 -5.484375 C 4.296875 -4.304688 4.492188 -3.40625 4.890625 -2.78125 C 5.296875 -2.164062 6.023438 -1.859375 7.078125 -1.859375 C 7.992188 -1.859375 8.835938 -2.054688 9.609375 -2.453125 C 10.390625 -2.859375 11.054688 -3.429688 11.609375 -4.171875 L 12.140625 -3.953125 C 11.753906 -2.972656 11.179688 -2.15625 10.421875 -1.5 C 9.660156 -0.851562 8.847656 -0.378906 7.984375 -0.078125 C 7.117188 0.222656 6.300781 0.375 5.53125 0.375 Z M 5.53125 0.375 "/></g></g></g><g fill="#767676" fill-opacity="1"><g transform="translate(92.648818, 26.941245)"><g><path d="M 1.578125 -11.609375 L 4.921875 -11.609375 L 4.625 -10.171875 C 5.144531 -10.628906 5.617188 -10.984375 6.046875 -11.234375 C 6.472656 -11.484375 6.9375 -11.609375 7.4375 -11.609375 C 7.925781 -11.609375 8.3125 -11.4375 8.59375 -11.09375 C 8.882812 -10.757812 9.03125 -10.351562 9.03125 -9.875 C 9.03125 -9.414062 8.882812 -9.015625 8.59375 -8.671875 C 8.300781 -8.335938 7.890625 -8.171875 7.359375 -8.171875 C 7.015625 -8.171875 6.785156 -8.25 6.671875 -8.40625 C 6.554688 -8.570312 6.46875 -8.8125 6.40625 -9.125 C 6.363281 -9.320312 6.316406 -9.46875 6.265625 -9.5625 C 6.222656 -9.65625 6.140625 -9.703125 6.015625 -9.703125 C 5.691406 -9.703125 5.414062 -9.632812 5.1875 -9.5 C 4.96875 -9.375 4.675781 -9.148438 4.3125 -8.828125 L 2.46875 0 L -0.875 0 Z M 1.578125 -11.609375 "/></g></g></g><g fill="#767676" fill-opacity="1"><g transform="translate(101.381742, 26.941245)"><g><path d="M 3.3125 0.140625 C 2.175781 0.140625 1.289062 -0.15625 0.65625 -0.75 C 0.0195312 -1.351562 -0.296875 -2.285156 -0.296875 -3.546875 C -0.296875 -4.617188 -0.0859375 -5.796875 0.328125 -7.078125 C 0.742188 -8.367188 1.421875 -9.476562 2.359375 -10.40625 C 3.304688 -11.34375 4.507812 -11.8125 5.96875 -11.8125 C 7.664062 -11.8125 8.515625 -11.070312 8.515625 -9.59375 C 8.515625 -8.71875 8.265625 -7.914062 7.765625 -7.1875 C 7.273438 -6.46875 6.617188 -5.882812 5.796875 -5.4375 C 4.984375 -5 4.113281 -4.75 3.1875 -4.6875 C 3.15625 -4.226562 3.140625 -3.921875 3.140625 -3.765625 C 3.140625 -3.003906 3.269531 -2.488281 3.53125 -2.21875 C 3.789062 -1.945312 4.21875 -1.8125 4.8125 -1.8125 C 5.644531 -1.8125 6.359375 -2.003906 6.953125 -2.390625 C 7.546875 -2.773438 8.203125 -3.363281 8.921875 -4.15625 L 9.703125 -4.15625 C 7.984375 -1.289062 5.851562 0.140625 3.3125 0.140625 Z M 3.359375 -5.796875 C 3.929688 -5.828125 4.476562 -6.03125 5 -6.40625 C 5.519531 -6.78125 5.9375 -7.253906 6.25 -7.828125 C 6.570312 -8.398438 6.734375 -9.003906 6.734375 -9.640625 C 6.734375 -10.273438 6.539062 -10.59375 6.15625 -10.59375 C 5.59375 -10.59375 5.046875 -10.101562 4.515625 -9.125 C 3.984375 -8.144531 3.597656 -7.035156 3.359375 -5.796875 Z M 3.359375 -5.796875 "/></g></g></g><g fill="#767676" fill-opacity="1"><g transform="translate(110.300469, 26.941245)"><g><path d="M 2.78125 0.140625 C 1.90625 0.140625 1.171875 -0.160156 0.578125 -0.765625 C -0.00390625 -1.367188 -0.296875 -2.3125 -0.296875 -3.59375 C -0.296875 -4.738281 -0.0703125 -5.941406 0.375 -7.203125 C 0.832031 -8.472656 1.515625 -9.539062 2.421875 -10.40625 C 3.328125 -11.28125 4.410156 -11.71875 5.671875 -11.71875 C 6.304688 -11.71875 6.773438 -11.609375 7.078125 -11.390625 C 7.390625 -11.179688 7.546875 -10.898438 7.546875 -10.546875 L 7.546875 -10.453125 L 8.6875 -15.78125 L 12.125 -16.25 L 9.453125 -3.71875 C 9.390625 -3.476562 9.359375 -3.226562 9.359375 -2.96875 C 9.359375 -2.65625 9.429688 -2.429688 9.578125 -2.296875 C 9.722656 -2.171875 9.96875 -2.109375 10.3125 -2.109375 C 10.738281 -2.109375 11.109375 -2.296875 11.421875 -2.671875 C 11.742188 -3.046875 12 -3.539062 12.1875 -4.15625 L 13.171875 -4.15625 C 12.222656 -1.382812 10.664062 0 8.5 0 C 7.863281 0 7.347656 -0.164062 6.953125 -0.5 C 6.554688 -0.84375 6.3125 -1.34375 6.21875 -2 C 5.820312 -1.375 5.335938 -0.859375 4.765625 -0.453125 C 4.203125 -0.0546875 3.539062 0.140625 2.78125 0.140625 Z M 4.296875 -2.109375 C 4.671875 -2.109375 5.046875 -2.28125 5.421875 -2.625 C 5.796875 -2.96875 6.054688 -3.441406 6.203125 -4.046875 L 6.203125 -4.15625 L 7.34375 -9.46875 C 7.195312 -10.007812 6.878906 -10.28125 6.390625 -10.28125 C 5.765625 -10.28125 5.203125 -9.921875 4.703125 -9.203125 C 4.210938 -8.484375 3.828125 -7.613281 3.546875 -6.59375 C 3.273438 -5.582031 3.140625 -4.691406 3.140625 -3.921875 C 3.140625 -3.148438 3.25 -2.65625 3.46875 -2.4375 C 3.695312 -2.21875 3.972656 -2.109375 4.296875 -2.109375 Z M 4.296875 -2.109375 "/></g></g></g><g fill="#767676" fill-opacity="1"><g transform="translate(122.494042, 26.941245)"><g><path d="M 3.875 -12.859375 C 3.363281 -12.859375 2.929688 -13.035156 2.578125 -13.390625 C 2.222656 -13.753906 2.046875 -14.191406 2.046875 -14.703125 C 2.046875 -15.210938 2.222656 -15.648438 2.578125 -16.015625 C 2.929688 -16.378906 3.363281 -16.5625 3.875 -16.5625 C 4.382812 -16.5625 4.820312 -16.378906 5.1875 -16.015625 C 5.550781 -15.648438 5.734375 -15.210938 5.734375 -14.703125 C 5.734375 -14.191406 5.550781 -13.753906 5.1875 -13.390625 C 4.820312 -13.035156 4.382812 -12.859375 3.875 -12.859375 Z M 2.296875 0.140625 C 1.554688 0.140625 0.957031 -0.0859375 0.5 -0.546875 C 0.0390625 -1.015625 -0.1875 -1.710938 -0.1875 -2.640625 C -0.1875 -3.035156 -0.125 -3.539062 0 -4.15625 L 1.578125 -11.609375 L 4.921875 -11.609375 L 3.25 -3.71875 C 3.1875 -3.476562 3.15625 -3.226562 3.15625 -2.96875 C 3.15625 -2.65625 3.226562 -2.429688 3.375 -2.296875 C 3.519531 -2.171875 3.765625 -2.109375 4.109375 -2.109375 C 4.554688 -2.109375 4.972656 -2.296875 5.359375 -2.671875 C 5.742188 -3.054688 6.023438 -3.550781 6.203125 -4.15625 L 7.171875 -4.15625 C 6.597656 -2.488281 5.863281 -1.351562 4.96875 -0.75 C 4.070312 -0.15625 3.179688 0.140625 2.296875 0.140625 Z M 2.296875 0.140625 "/></g></g></g><g fill="#767676" fill-opacity="1"><g transform="translate(128.695348, 26.941245)"><g><path d="M 2.296875 0.140625 C 1.554688 0.140625 0.957031 -0.0859375 0.5 -0.546875 C 0.0390625 -1.015625 -0.1875 -1.710938 -0.1875 -2.640625 C -0.1875 -3.035156 -0.125 -3.539062 0 -4.15625 L 1.390625 -10.6875 L 0.625 -10.6875 L 0.8125 -11.609375 L 1.578125 -11.609375 L 2.28125 -14.8125 L 5.71875 -15.28125 L 4.921875 -11.609375 L 6.3125 -11.609375 L 6.125 -10.6875 L 4.734375 -10.6875 L 3.25 -3.71875 C 3.1875 -3.476562 3.15625 -3.226562 3.15625 -2.96875 C 3.15625 -2.65625 3.226562 -2.429688 3.375 -2.296875 C 3.519531 -2.171875 3.765625 -2.109375 4.109375 -2.109375 C 4.554688 -2.109375 4.972656 -2.296875 5.359375 -2.671875 C 5.742188 -3.054688 6.023438 -3.550781 6.203125 -4.15625 L 7.171875 -4.15625 C 6.597656 -2.488281 5.863281 -1.351562 4.96875 -0.75 C 4.070312 -0.15625 3.179688 0.140625 2.296875 0.140625 Z M 2.296875 0.140625 "/></g></g></g><g fill="#767676" fill-opacity="1"><g transform="translate(134.896654, 26.941245)"><g><path d="M 2.640625 0.140625 C 1.898438 0.140625 1.273438 0 0.765625 -0.28125 C 0.253906 -0.570312 -0.125 -0.945312 -0.375 -1.40625 C -0.625 -1.863281 -0.75 -2.335938 -0.75 -2.828125 C -0.75 -3.335938 -0.625 -3.78125 -0.375 -4.15625 C -0.132812 -4.539062 0.148438 -4.816406 0.484375 -4.984375 C 1.085938 -6.078125 1.613281 -7.175781 2.0625 -8.28125 C 2.507812 -9.382812 2.9375 -10.578125 3.34375 -11.859375 L 6.78125 -12.328125 C 6.851562 -10.347656 6.984375 -8.203125 7.171875 -5.890625 C 7.253906 -4.960938 7.296875 -4.289062 7.296875 -3.875 C 7.296875 -3.519531 7.265625 -3.226562 7.203125 -3 C 7.921875 -3.414062 8.476562 -3.800781 8.875 -4.15625 L 9.84375 -4.15625 C 8.851562 -3.007812 7.671875 -2.039062 6.296875 -1.25 C 5.847656 -0.769531 5.289062 -0.414062 4.625 -0.1875 C 3.96875 0.03125 3.304688 0.140625 2.640625 0.140625 Z M 1.90625 -1.6875 C 2.476562 -1.6875 2.957031 -1.859375 3.34375 -2.203125 C 3.726562 -2.546875 3.921875 -3.097656 3.921875 -3.859375 C 3.921875 -4.316406 3.875 -4.960938 3.78125 -5.796875 C 3.625 -7.566406 3.523438 -8.753906 3.484375 -9.359375 C 3.109375 -8.128906 2.484375 -6.664062 1.609375 -4.96875 C 1.960938 -4.78125 2.140625 -4.507812 2.140625 -4.15625 C 2.140625 -3.863281 2.039062 -3.597656 1.84375 -3.359375 C 1.65625 -3.128906 1.410156 -3.015625 1.109375 -3.015625 C 0.785156 -3.015625 0.578125 -3.113281 0.484375 -3.3125 C 0.484375 -2.757812 0.59375 -2.347656 0.8125 -2.078125 C 1.039062 -1.816406 1.40625 -1.6875 1.90625 -1.6875 Z M 1.90625 -1.6875 "/></g></g></g></svg>