<svg xmlns="http://www.w3.org/2000/svg" xmlns:xlink="http://www.w3.org/1999/xlink" width="300" zoomAndPan="magnify" viewBox="0 0 224.87999 37.5" height="50" preserveAspectRatio="xMidYMid meet" version="1.0"><defs><g/></defs><g fill="#767676" fill-opacity="1"><g transform="translate(85.815493, 25.534539)"><g><path d="M 4.703125 0.3125 C 3.210938 0.3125 2.117188 -0.0625 1.421875 -0.8125 C 0.722656 -1.5625 0.375 -2.800781 0.375 -4.53125 C 0.375 -5.914062 0.609375 -7.40625 1.078125 -9 C 1.546875 -10.59375 2.296875 -11.957031 3.328125 -13.09375 C 4.359375 -14.226562 5.671875 -14.796875 7.265625 -14.796875 C 8.253906 -14.796875 9.050781 -14.578125 9.65625 -14.140625 C 10.257812 -13.710938 10.5625 -13.050781 10.5625 -12.15625 C 10.5625 -11.59375 10.445312 -11.148438 10.21875 -10.828125 C 10 -10.503906 9.648438 -10.34375 9.171875 -10.34375 C 8.703125 -10.34375 8.328125 -10.515625 8.046875 -10.859375 C 8.285156 -10.972656 8.492188 -11.207031 8.671875 -11.5625 C 8.859375 -11.914062 8.953125 -12.285156 8.953125 -12.671875 C 8.953125 -13.023438 8.859375 -13.3125 8.671875 -13.53125 C 8.484375 -13.757812 8.175781 -13.875 7.75 -13.875 C 7.050781 -13.875 6.382812 -13.394531 5.75 -12.4375 C 5.125 -11.488281 4.617188 -10.289062 4.234375 -8.84375 C 3.847656 -7.394531 3.65625 -6 3.65625 -4.65625 C 3.65625 -3.65625 3.820312 -2.890625 4.15625 -2.359375 C 4.5 -1.835938 5.117188 -1.578125 6.015625 -1.578125 C 6.796875 -1.578125 7.515625 -1.75 8.171875 -2.09375 C 8.828125 -2.4375 9.394531 -2.921875 9.875 -3.546875 L 10.328125 -3.359375 C 9.992188 -2.523438 9.503906 -1.832031 8.859375 -1.28125 C 8.210938 -0.726562 7.519531 -0.320312 6.78125 -0.0625 C 6.050781 0.1875 5.359375 0.3125 4.703125 0.3125 Z M 4.703125 0.3125 "/></g></g></g><g fill="#767676" fill-opacity="1"><g transform="translate(95.620835, 25.534539)"><g><path d="M 1.34375 -9.875 L 4.1875 -9.875 L 3.921875 -8.640625 C 4.367188 -9.035156 4.773438 -9.335938 5.140625 -9.546875 C 5.503906 -9.765625 5.894531 -9.875 6.3125 -9.875 C 6.738281 -9.875 7.070312 -9.726562 7.3125 -9.4375 C 7.550781 -9.144531 7.671875 -8.796875 7.671875 -8.390625 C 7.671875 -8.003906 7.546875 -7.664062 7.296875 -7.375 C 7.046875 -7.09375 6.695312 -6.953125 6.25 -6.953125 C 5.96875 -6.953125 5.773438 -7.019531 5.671875 -7.15625 C 5.578125 -7.289062 5.503906 -7.488281 5.453125 -7.75 C 5.410156 -7.925781 5.367188 -8.050781 5.328125 -8.125 C 5.285156 -8.207031 5.210938 -8.25 5.109375 -8.25 C 4.835938 -8.25 4.601562 -8.191406 4.40625 -8.078125 C 4.21875 -7.960938 3.972656 -7.769531 3.671875 -7.5 L 2.09375 0 L -0.75 0 Z M 1.34375 -9.875 "/></g></g></g><g fill="#767676" fill-opacity="1"><g transform="translate(103.038967, 25.534539)"><g><path d="M 2.828125 0.125 C 1.847656 0.125 1.085938 -0.128906 0.546875 -0.640625 C 0.015625 -1.148438 -0.25 -1.941406 -0.25 -3.015625 C -0.25 -3.921875 -0.0703125 -4.921875 0.28125 -6.015625 C 0.632812 -7.109375 1.210938 -8.050781 2.015625 -8.84375 C 2.816406 -9.644531 3.835938 -10.046875 5.078125 -10.046875 C 6.523438 -10.046875 7.25 -9.414062 7.25 -8.15625 C 7.25 -7.414062 7.035156 -6.734375 6.609375 -6.109375 C 6.191406 -5.492188 5.632812 -5 4.9375 -4.625 C 4.238281 -4.25 3.492188 -4.035156 2.703125 -3.984375 C 2.679688 -3.585938 2.671875 -3.328125 2.671875 -3.203125 C 2.671875 -2.554688 2.78125 -2.117188 3 -1.890625 C 3.21875 -1.660156 3.578125 -1.546875 4.078125 -1.546875 C 4.796875 -1.546875 5.40625 -1.707031 5.90625 -2.03125 C 6.414062 -2.363281 6.972656 -2.863281 7.578125 -3.53125 L 8.25 -3.53125 C 6.789062 -1.09375 4.984375 0.125 2.828125 0.125 Z M 2.859375 -4.9375 C 3.347656 -4.957031 3.8125 -5.125 4.25 -5.4375 C 4.6875 -5.757812 5.039062 -6.160156 5.3125 -6.640625 C 5.582031 -7.128906 5.71875 -7.644531 5.71875 -8.1875 C 5.71875 -8.726562 5.554688 -9 5.234375 -9 C 4.753906 -9 4.285156 -8.582031 3.828125 -7.75 C 3.378906 -6.925781 3.054688 -5.988281 2.859375 -4.9375 Z M 2.859375 -4.9375 "/></g></g></g><g fill="#767676" fill-opacity="1"><g transform="translate(110.614925, 25.534539)"><g><path d="M 2.375 0.125 C 1.625 0.125 1 -0.128906 0.5 -0.640625 C 0 -1.160156 -0.25 -1.96875 -0.25 -3.0625 C -0.25 -4.03125 -0.0546875 -5.050781 0.328125 -6.125 C 0.710938 -7.195312 1.289062 -8.101562 2.0625 -8.84375 C 2.832031 -9.59375 3.75 -9.96875 4.8125 -9.96875 C 5.351562 -9.96875 5.753906 -9.875 6.015625 -9.6875 C 6.273438 -9.5 6.40625 -9.253906 6.40625 -8.953125 L 6.40625 -8.875 L 7.375 -13.421875 L 10.296875 -13.8125 L 8.03125 -3.15625 C 7.976562 -2.957031 7.953125 -2.75 7.953125 -2.53125 C 7.953125 -2.257812 8.015625 -2.066406 8.140625 -1.953125 C 8.265625 -1.847656 8.472656 -1.796875 8.765625 -1.796875 C 9.128906 -1.796875 9.445312 -1.953125 9.71875 -2.265625 C 9.988281 -2.585938 10.203125 -3.007812 10.359375 -3.53125 L 11.1875 -3.53125 C 10.382812 -1.175781 9.0625 0 7.21875 0 C 6.675781 0 6.238281 -0.144531 5.90625 -0.4375 C 5.570312 -0.726562 5.363281 -1.148438 5.28125 -1.703125 C 4.945312 -1.171875 4.535156 -0.734375 4.046875 -0.390625 C 3.566406 -0.046875 3.007812 0.125 2.375 0.125 Z M 3.65625 -1.796875 C 3.96875 -1.796875 4.285156 -1.941406 4.609375 -2.234375 C 4.929688 -2.523438 5.148438 -2.925781 5.265625 -3.4375 L 5.265625 -3.53125 L 6.234375 -8.046875 C 6.117188 -8.515625 5.847656 -8.75 5.421875 -8.75 C 4.898438 -8.75 4.425781 -8.441406 4 -7.828125 C 3.582031 -7.210938 3.253906 -6.472656 3.015625 -5.609375 C 2.785156 -4.753906 2.671875 -3.992188 2.671875 -3.328125 C 2.671875 -2.671875 2.765625 -2.25 2.953125 -2.0625 C 3.140625 -1.882812 3.375 -1.796875 3.65625 -1.796875 Z M 3.65625 -1.796875 "/></g></g></g><g fill="#767676" fill-opacity="1"><g transform="translate(120.972679, 25.534539)"><g><path d="M 3.296875 -10.9375 C 2.859375 -10.9375 2.488281 -11.085938 2.1875 -11.390625 C 1.882812 -11.691406 1.734375 -12.054688 1.734375 -12.484375 C 1.734375 -12.921875 1.882812 -13.296875 2.1875 -13.609375 C 2.488281 -13.921875 2.859375 -14.078125 3.296875 -14.078125 C 3.734375 -14.078125 4.101562 -13.921875 4.40625 -13.609375 C 4.71875 -13.296875 4.875 -12.921875 4.875 -12.484375 C 4.875 -12.054688 4.71875 -11.691406 4.40625 -11.390625 C 4.101562 -11.085938 3.734375 -10.9375 3.296875 -10.9375 Z M 1.953125 0.125 C 1.316406 0.125 0.804688 -0.0703125 0.421875 -0.46875 C 0.0351562 -0.863281 -0.15625 -1.457031 -0.15625 -2.25 C -0.15625 -2.582031 -0.101562 -3.007812 0 -3.53125 L 1.34375 -9.875 L 4.1875 -9.875 L 2.765625 -3.15625 C 2.710938 -2.957031 2.6875 -2.75 2.6875 -2.53125 C 2.6875 -2.257812 2.75 -2.066406 2.875 -1.953125 C 3 -1.847656 3.207031 -1.796875 3.5 -1.796875 C 3.875 -1.796875 4.222656 -1.957031 4.546875 -2.28125 C 4.878906 -2.601562 5.117188 -3.019531 5.265625 -3.53125 L 6.09375 -3.53125 C 5.613281 -2.113281 4.988281 -1.148438 4.21875 -0.640625 C 3.457031 -0.128906 2.703125 0.125 1.953125 0.125 Z M 1.953125 0.125 "/></g></g></g><g fill="#767676" fill-opacity="1"><g transform="translate(126.240334, 25.534539)"><g><path d="M 1.953125 0.125 C 1.316406 0.125 0.804688 -0.0703125 0.421875 -0.46875 C 0.0351562 -0.863281 -0.15625 -1.457031 -0.15625 -2.25 C -0.15625 -2.582031 -0.101562 -3.007812 0 -3.53125 L 1.1875 -9.078125 L 0.53125 -9.078125 L 0.6875 -9.875 L 1.34375 -9.875 L 1.9375 -12.59375 L 4.859375 -12.984375 L 4.1875 -9.875 L 5.375 -9.875 L 5.203125 -9.078125 L 4.03125 -9.078125 L 2.765625 -3.15625 C 2.710938 -2.957031 2.6875 -2.75 2.6875 -2.53125 C 2.6875 -2.257812 2.75 -2.066406 2.875 -1.953125 C 3 -1.847656 3.207031 -1.796875 3.5 -1.796875 C 3.875 -1.796875 4.222656 -1.957031 4.546875 -2.28125 C 4.878906 -2.601562 5.117188 -3.019531 5.265625 -3.53125 L 6.09375 -3.53125 C 5.613281 -2.113281 4.988281 -1.148438 4.21875 -0.640625 C 3.457031 -0.128906 2.703125 0.125 1.953125 0.125 Z M 1.953125 0.125 "/></g></g></g><g fill="#767676" fill-opacity="1"><g transform="translate(131.507989, 25.534539)"><g><path d="M 2.25 0.125 C 1.613281 0.125 1.078125 0.00390625 0.640625 -0.234375 C 0.210938 -0.484375 -0.101562 -0.800781 -0.3125 -1.1875 C -0.519531 -1.582031 -0.625 -1.988281 -0.625 -2.40625 C -0.625 -2.84375 -0.519531 -3.222656 -0.3125 -3.546875 C -0.113281 -3.867188 0.128906 -4.101562 0.421875 -4.25 C 0.929688 -5.164062 1.375 -6.09375 1.75 -7.03125 C 2.132812 -7.976562 2.5 -8.992188 2.84375 -10.078125 L 5.765625 -10.484375 C 5.828125 -8.796875 5.9375 -6.972656 6.09375 -5.015625 C 6.164062 -4.222656 6.203125 -3.648438 6.203125 -3.296875 C 6.203125 -2.992188 6.175781 -2.742188 6.125 -2.546875 C 6.738281 -2.898438 7.207031 -3.226562 7.53125 -3.53125 L 8.375 -3.53125 C 7.53125 -2.5625 6.519531 -1.738281 5.34375 -1.0625 C 4.96875 -0.65625 4.5 -0.351562 3.9375 -0.15625 C 3.375 0.03125 2.8125 0.125 2.25 0.125 Z M 1.625 -1.4375 C 2.101562 -1.4375 2.503906 -1.582031 2.828125 -1.875 C 3.160156 -2.164062 3.328125 -2.632812 3.328125 -3.28125 C 3.328125 -3.675781 3.289062 -4.226562 3.21875 -4.9375 C 3.082031 -6.4375 2.992188 -7.441406 2.953125 -7.953125 C 2.640625 -6.910156 2.109375 -5.664062 1.359375 -4.21875 C 1.660156 -4.0625 1.8125 -3.832031 1.8125 -3.53125 C 1.8125 -3.28125 1.726562 -3.054688 1.5625 -2.859375 C 1.40625 -2.660156 1.203125 -2.5625 0.953125 -2.5625 C 0.671875 -2.5625 0.492188 -2.648438 0.421875 -2.828125 C 0.421875 -2.347656 0.515625 -1.992188 0.703125 -1.765625 C 0.890625 -1.546875 1.195312 -1.4375 1.625 -1.4375 Z M 1.625 -1.4375 "/></g></g></g></svg>