<svg xmlns="http://www.w3.org/2000/svg" xmlns:xlink="http://www.w3.org/1999/xlink" width="300" zoomAndPan="magnify" viewBox="0 0 224.87999 37.5" height="50" preserveAspectRatio="xMidYMid meet" version="1.0"><defs><g/></defs><g fill="#767676" fill-opacity="1"><g transform="translate(34.217337, 28.407296)"><g><path d="M 7.296875 6.53125 C 5.753906 6.53125 4.515625 6.132812 3.578125 5.34375 C 2.640625 4.5625 2.171875 3.523438 2.171875 2.234375 C 2.171875 1.441406 2.359375 0.707031 2.734375 0.03125 C 3.117188 -0.644531 3.640625 -1.175781 4.296875 -1.5625 C 4.953125 -1.945312 5.664062 -2.140625 6.4375 -2.140625 C 7.238281 -2.140625 7.882812 -1.941406 8.375 -1.546875 C 8.875 -1.148438 9.125 -0.625 9.125 0.03125 C 9.125 0.539062 9.007812 0.941406 8.78125 1.234375 C 8.59375 0.984375 8.332031 0.78125 8 0.625 C 7.675781 0.476562 7.335938 0.40625 6.984375 0.40625 C 6.347656 0.40625 5.828125 0.613281 5.421875 1.03125 C 5.023438 1.457031 4.828125 2.007812 4.828125 2.6875 C 4.828125 3.351562 5.019531 3.894531 5.40625 4.3125 C 5.800781 4.738281 6.296875 4.953125 6.890625 4.953125 C 7.617188 4.953125 8.242188 4.625 8.765625 3.96875 C 9.296875 3.320312 9.703125 2.359375 9.984375 1.078125 L 11.5625 -5.90625 L 11.4375 -5.90625 C 10.863281 -5.101562 10.171875 -4.488281 9.359375 -4.0625 C 8.546875 -3.644531 7.65625 -3.4375 6.6875 -3.4375 C 5.46875 -3.4375 4.394531 -3.765625 3.46875 -4.421875 C 2.539062 -5.078125 1.828125 -6.007812 1.328125 -7.21875 C 0.835938 -8.425781 0.59375 -9.832031 0.59375 -11.4375 C 0.59375 -13.75 1.097656 -15.859375 2.109375 -17.765625 C 3.117188 -19.671875 4.507812 -21.171875 6.28125 -22.265625 C 8.050781 -23.359375 10 -23.90625 12.125 -23.90625 C 13.914062 -23.90625 15.332031 -23.515625 16.375 -22.734375 C 17.414062 -21.953125 17.9375 -20.890625 17.9375 -19.546875 C 17.9375 -18.640625 17.710938 -17.910156 17.265625 -17.359375 C 16.828125 -16.816406 16.25 -16.546875 15.53125 -16.546875 C 15.132812 -16.546875 14.757812 -16.628906 14.40625 -16.796875 C 14.0625 -16.960938 13.773438 -17.207031 13.546875 -17.53125 C 13.921875 -17.78125 14.238281 -18.179688 14.5 -18.734375 C 14.769531 -19.296875 14.90625 -19.863281 14.90625 -20.4375 C 14.90625 -21.0625 14.71875 -21.546875 14.34375 -21.890625 C 13.976562 -22.242188 13.460938 -22.421875 12.796875 -22.421875 C 11.566406 -22.421875 10.382812 -21.878906 9.25 -20.796875 C 8.113281 -19.710938 7.195312 -18.296875 6.5 -16.546875 C 5.8125 -14.796875 5.46875 -12.960938 5.46875 -11.046875 C 5.46875 -9.472656 5.71875 -8.269531 6.21875 -7.4375 C 6.726562 -6.601562 7.457031 -6.1875 8.40625 -6.1875 C 9.539062 -6.1875 10.539062 -6.785156 11.40625 -7.984375 C 12.28125 -9.191406 12.984375 -10.941406 13.515625 -13.234375 L 17.234375 -13.203125 L 14.9375 -2.59375 C 14.257812 0.539062 13.304688 2.84375 12.078125 4.3125 C 10.847656 5.789062 9.253906 6.53125 7.296875 6.53125 Z M 7.296875 6.53125 "/></g></g></g><g fill="#767676" fill-opacity="1"><g transform="translate(52.465483, 28.407296)"><g><path d="M 5.28125 -17.5 C 4.582031 -17.5 3.988281 -17.738281 3.5 -18.21875 C 3.019531 -18.707031 2.78125 -19.296875 2.78125 -19.984375 C 2.78125 -20.679688 3.019531 -21.273438 3.5 -21.765625 C 3.988281 -22.265625 4.582031 -22.515625 5.28125 -22.515625 C 5.96875 -22.515625 6.554688 -22.265625 7.046875 -21.765625 C 7.546875 -21.273438 7.796875 -20.679688 7.796875 -19.984375 C 7.796875 -19.296875 7.546875 -18.707031 7.046875 -18.21875 C 6.554688 -17.738281 5.96875 -17.5 5.28125 -17.5 Z M 3.125 0.1875 C 2.113281 0.1875 1.296875 -0.125 0.671875 -0.75 C 0.0546875 -1.382812 -0.25 -2.332031 -0.25 -3.59375 C -0.25 -4.125 -0.164062 -4.8125 0 -5.65625 L 2.140625 -15.78125 L 6.6875 -15.78125 L 4.421875 -5.046875 C 4.335938 -4.734375 4.296875 -4.398438 4.296875 -4.046875 C 4.296875 -3.617188 4.394531 -3.316406 4.59375 -3.140625 C 4.789062 -2.960938 5.125 -2.875 5.59375 -2.875 C 6.195312 -2.875 6.757812 -3.128906 7.28125 -3.640625 C 7.8125 -4.160156 8.195312 -4.832031 8.4375 -5.65625 L 9.75 -5.65625 C 8.976562 -3.375 7.976562 -1.828125 6.75 -1.015625 C 5.53125 -0.210938 4.320312 0.1875 3.125 0.1875 Z M 3.125 0.1875 "/></g></g></g><g fill="#767676" fill-opacity="1"><g transform="translate(60.894993, 28.407296)"><g><path d="M 3.125 0.1875 C 2.113281 0.1875 1.296875 -0.125 0.671875 -0.75 C 0.0546875 -1.382812 -0.25 -2.332031 -0.25 -3.59375 C -0.25 -4.125 -0.164062 -4.8125 0 -5.65625 L 1.890625 -14.53125 L 0.859375 -14.53125 L 1.109375 -15.78125 L 2.140625 -15.78125 L 3.09375 -20.140625 L 7.765625 -20.78125 L 6.6875 -15.78125 L 8.59375 -15.78125 L 8.34375 -14.53125 L 6.4375 -14.53125 L 4.421875 -5.046875 C 4.335938 -4.734375 4.296875 -4.398438 4.296875 -4.046875 C 4.296875 -3.617188 4.394531 -3.316406 4.59375 -3.140625 C 4.789062 -2.960938 5.125 -2.875 5.59375 -2.875 C 6.195312 -2.875 6.757812 -3.128906 7.28125 -3.640625 C 7.8125 -4.160156 8.195312 -4.832031 8.4375 -5.65625 L 9.75 -5.65625 C 8.976562 -3.375 7.976562 -1.828125 6.75 -1.015625 C 5.53125 -0.210938 4.320312 0.1875 3.125 0.1875 Z M 3.125 0.1875 "/></g></g></g><g fill="#767676" fill-opacity="1"><g transform="translate(69.324504, 28.407296)"><g><path d="M 7.734375 -21.46875 C 6.328125 -20.882812 5.238281 -20 4.46875 -18.8125 C 3.695312 -17.632812 3.3125 -16.21875 3.3125 -14.5625 C 3.3125 -13.78125 3.382812 -13.234375 3.53125 -12.921875 C 3.675781 -12.617188 3.75 -12.445312 3.75 -12.40625 C 2.613281 -12.40625 1.765625 -12.640625 1.203125 -13.109375 C 0.648438 -13.585938 0.375 -14.375 0.375 -15.46875 C 0.375 -16.820312 0.925781 -18.132812 2.03125 -19.40625 C 3.132812 -20.675781 4.550781 -21.707031 6.28125 -22.5 C 8.007812 -23.289062 9.738281 -23.6875 11.46875 -23.6875 C 11.757812 -23.6875 12.175781 -23.664062 12.71875 -23.625 L 10.703125 -14.203125 L 15.34375 -14.203125 L 17.375 -23.625 L 21.921875 -23.625 L 16.890625 0 L 12.34375 0 L 14.875 -11.875 L 10.234375 -11.875 L 7.703125 0 L 3.15625 0 Z M 7.734375 -21.46875 "/></g></g></g><g fill="#767676" fill-opacity="1"><g transform="translate(90.319345, 28.407296)"><g><path d="M 3.125 0.1875 C 2.113281 0.1875 1.296875 -0.125 0.671875 -0.75 C 0.0546875 -1.382812 -0.25 -2.332031 -0.25 -3.59375 C -0.25 -4.125 -0.164062 -4.8125 0 -5.65625 L 2.140625 -15.78125 L 6.6875 -15.78125 L 4.421875 -5.046875 C 4.359375 -4.734375 4.328125 -4.441406 4.328125 -4.171875 C 4.328125 -3.304688 4.644531 -2.875 5.28125 -2.875 C 5.863281 -2.875 6.363281 -3.117188 6.78125 -3.609375 C 7.207031 -4.109375 7.546875 -4.789062 7.796875 -5.65625 L 9.953125 -15.78125 L 14.5 -15.78125 L 12.21875 -5.046875 C 12.132812 -4.734375 12.09375 -4.398438 12.09375 -4.046875 C 12.09375 -3.617188 12.191406 -3.316406 12.390625 -3.140625 C 12.585938 -2.960938 12.921875 -2.875 13.390625 -2.875 C 13.972656 -2.875 14.476562 -3.125 14.90625 -3.625 C 15.34375 -4.132812 15.691406 -4.8125 15.953125 -5.65625 L 17.265625 -5.65625 C 16.492188 -3.375 15.53125 -1.828125 14.375 -1.015625 C 13.226562 -0.210938 12.078125 0.1875 10.921875 0.1875 C 10.015625 0.1875 9.289062 -0.0625 8.75 -0.5625 C 8.21875 -1.070312 7.898438 -1.820312 7.796875 -2.8125 C 7.078125 -1.65625 6.320312 -0.863281 5.53125 -0.4375 C 4.75 -0.0195312 3.945312 0.1875 3.125 0.1875 Z M 3.125 0.1875 "/></g></g></g><g fill="#767676" fill-opacity="1"><g transform="translate(106.26279, 28.407296)"><g><path d="M 4.203125 0.1875 C 2.765625 0.1875 1.664062 -0.160156 0.90625 -0.859375 C 0.15625 -1.566406 -0.21875 -2.566406 -0.21875 -3.859375 C -0.21875 -4.484375 -0.144531 -5.082031 0 -5.65625 L 3.375 -21.46875 L 8.046875 -22.109375 L 6.53125 -15 C 7.125 -15.351562 7.609375 -15.585938 7.984375 -15.703125 C 8.367188 -15.828125 8.75 -15.890625 9.125 -15.890625 C 11.613281 -15.890625 12.859375 -14.085938 12.859375 -10.484375 C 12.859375 -9.035156 12.578125 -7.484375 12.015625 -5.828125 C 11.453125 -4.171875 10.523438 -2.753906 9.234375 -1.578125 C 7.941406 -0.398438 6.265625 0.1875 4.203125 0.1875 Z M 5.96875 -2.875 C 6.625 -2.875 7.234375 -3.28125 7.796875 -4.09375 C 8.367188 -4.90625 8.820312 -5.914062 9.15625 -7.125 C 9.488281 -8.332031 9.65625 -9.492188 9.65625 -10.609375 C 9.65625 -11.453125 9.507812 -12.164062 9.21875 -12.75 C 8.925781 -13.34375 8.515625 -13.640625 7.984375 -13.640625 C 7.671875 -13.640625 7.316406 -13.59375 6.921875 -13.5 C 6.535156 -13.40625 6.269531 -13.265625 6.125 -13.078125 L 4.390625 -5.046875 C 4.328125 -4.796875 4.296875 -4.554688 4.296875 -4.328125 C 4.296875 -3.359375 4.851562 -2.875 5.96875 -2.875 Z M 5.96875 -2.875 "/></g></g></g><g fill="#767676" fill-opacity="1"><g transform="translate(120.280398, 28.407296)"><g/></g></g><g fill="#767676" fill-opacity="1"><g transform="translate(127.131346, 28.407296)"><g><path d="M 7.734375 0.5625 C 6.410156 0.5625 5.242188 0.332031 4.234375 -0.125 C 3.222656 -0.59375 2.441406 -1.238281 1.890625 -2.0625 C 1.347656 -2.894531 1.078125 -3.859375 1.078125 -4.953125 C 1.078125 -5.878906 1.269531 -6.722656 1.65625 -7.484375 C 2.039062 -8.242188 2.566406 -8.84375 3.234375 -9.28125 C 3.898438 -9.726562 4.632812 -9.953125 5.4375 -9.953125 C 6.164062 -9.953125 6.78125 -9.765625 7.28125 -9.390625 C 7.789062 -9.023438 8.109375 -8.515625 8.234375 -7.859375 C 7.140625 -7.859375 6.265625 -7.566406 5.609375 -6.984375 C 4.960938 -6.410156 4.640625 -5.628906 4.640625 -4.640625 C 4.640625 -3.734375 4.910156 -3.003906 5.453125 -2.453125 C 6.003906 -1.910156 6.734375 -1.640625 7.640625 -1.640625 C 8.753906 -1.640625 9.675781 -2.015625 10.40625 -2.765625 C 11.132812 -3.515625 11.5 -4.457031 11.5 -5.59375 C 11.5 -6.582031 11.222656 -7.515625 10.671875 -8.390625 C 10.128906 -9.273438 9.304688 -10.351562 8.203125 -11.625 C 7.066406 -12.925781 6.207031 -14.046875 5.625 -14.984375 C 5.050781 -15.921875 4.765625 -16.945312 4.765625 -18.0625 C 4.765625 -19.15625 5.066406 -20.140625 5.671875 -21.015625 C 6.285156 -21.890625 7.128906 -22.578125 8.203125 -23.078125 C 9.285156 -23.585938 10.5 -23.84375 11.84375 -23.84375 C 13.550781 -23.84375 14.914062 -23.441406 15.9375 -22.640625 C 16.957031 -21.835938 17.46875 -20.765625 17.46875 -19.421875 C 17.46875 -18.535156 17.242188 -17.816406 16.796875 -17.265625 C 16.359375 -16.722656 15.78125 -16.453125 15.0625 -16.453125 C 14.257812 -16.453125 13.617188 -16.78125 13.140625 -17.4375 C 13.535156 -17.726562 13.847656 -18.113281 14.078125 -18.59375 C 14.316406 -19.082031 14.4375 -19.585938 14.4375 -20.109375 C 14.4375 -20.785156 14.234375 -21.320312 13.828125 -21.71875 C 13.429688 -22.125 12.882812 -22.328125 12.1875 -22.328125 C 11.34375 -22.328125 10.648438 -22.023438 10.109375 -21.421875 C 9.578125 -20.828125 9.3125 -20.066406 9.3125 -19.140625 C 9.3125 -18.296875 9.550781 -17.507812 10.03125 -16.78125 C 10.519531 -16.050781 11.28125 -15.117188 12.3125 -13.984375 C 13.15625 -13.078125 13.832031 -12.296875 14.34375 -11.640625 C 14.863281 -10.992188 15.304688 -10.242188 15.671875 -9.390625 C 16.046875 -8.535156 16.234375 -7.613281 16.234375 -6.625 C 16.234375 -5.28125 15.859375 -4.0625 15.109375 -2.96875 C 14.359375 -1.875 13.335938 -1.007812 12.046875 -0.375 C 10.753906 0.25 9.316406 0.5625 7.734375 0.5625 Z M 7.734375 0.5625 "/></g></g></g><g fill="#767676" fill-opacity="1"><g transform="translate(145.126924, 28.407296)"><g><path d="M 3.125 0.1875 C 2.113281 0.1875 1.296875 -0.125 0.671875 -0.75 C 0.0546875 -1.382812 -0.25 -2.332031 -0.25 -3.59375 C -0.25 -4.125 -0.164062 -4.8125 0 -5.65625 L 1.890625 -14.53125 L 0.859375 -14.53125 L 1.109375 -15.78125 L 2.140625 -15.78125 L 3.09375 -20.140625 L 7.765625 -20.78125 L 6.6875 -15.78125 L 8.59375 -15.78125 L 8.34375 -14.53125 L 6.4375 -14.53125 L 4.421875 -5.046875 C 4.335938 -4.734375 4.296875 -4.398438 4.296875 -4.046875 C 4.296875 -3.617188 4.394531 -3.316406 4.59375 -3.140625 C 4.789062 -2.960938 5.125 -2.875 5.59375 -2.875 C 6.195312 -2.875 6.757812 -3.128906 7.28125 -3.640625 C 7.8125 -4.160156 8.195312 -4.832031 8.4375 -5.65625 L 9.75 -5.65625 C 8.976562 -3.375 7.976562 -1.828125 6.75 -1.015625 C 5.53125 -0.210938 4.320312 0.1875 3.125 0.1875 Z M 3.125 0.1875 "/></g></g></g><g fill="#767676" fill-opacity="1"><g transform="translate(153.556435, 28.407296)"><g><path d="M 3.796875 0.1875 C 2.585938 0.1875 1.582031 -0.222656 0.78125 -1.046875 C -0.0078125 -1.867188 -0.40625 -3.148438 -0.40625 -4.890625 C -0.40625 -6.453125 -0.0976562 -8.085938 0.515625 -9.796875 C 1.140625 -11.515625 2.066406 -12.96875 3.296875 -14.15625 C 4.523438 -15.351562 5.992188 -15.953125 7.703125 -15.953125 C 8.566406 -15.953125 9.207031 -15.800781 9.625 -15.5 C 10.050781 -15.207031 10.265625 -14.820312 10.265625 -14.34375 L 10.265625 -14.109375 L 10.609375 -15.78125 L 15.15625 -15.78125 L 12.890625 -5.046875 C 12.796875 -4.734375 12.75 -4.398438 12.75 -4.046875 C 12.75 -3.140625 13.179688 -2.6875 14.046875 -2.6875 C 14.640625 -2.6875 15.148438 -2.957031 15.578125 -3.5 C 16.015625 -4.050781 16.359375 -4.769531 16.609375 -5.65625 L 17.9375 -5.65625 C 17.15625 -3.375 16.191406 -1.828125 15.046875 -1.015625 C 13.898438 -0.210938 12.75 0.1875 11.59375 0.1875 C 10.707031 0.1875 9.992188 -0.0546875 9.453125 -0.546875 C 8.921875 -1.046875 8.601562 -1.769531 8.5 -2.71875 C 7.882812 -1.851562 7.203125 -1.148438 6.453125 -0.609375 C 5.710938 -0.078125 4.828125 0.1875 3.796875 0.1875 Z M 5.84375 -2.875 C 6.363281 -2.875 6.878906 -3.117188 7.390625 -3.609375 C 7.910156 -4.109375 8.269531 -4.789062 8.46875 -5.65625 L 9.984375 -12.796875 C 9.984375 -13.066406 9.875 -13.332031 9.65625 -13.59375 C 9.445312 -13.851562 9.125 -13.984375 8.6875 -13.984375 C 7.84375 -13.984375 7.082031 -13.492188 6.40625 -12.515625 C 5.738281 -11.535156 5.210938 -10.359375 4.828125 -8.984375 C 4.453125 -7.609375 4.265625 -6.394531 4.265625 -5.34375 C 4.265625 -4.28125 4.414062 -3.601562 4.71875 -3.3125 C 5.019531 -3.019531 5.394531 -2.875 5.84375 -2.875 Z M 5.84375 -2.875 "/></g></g></g><g fill="#767676" fill-opacity="1"><g transform="translate(170.162876, 28.407296)"><g><path d="M 3.125 0.1875 C 2.113281 0.1875 1.296875 -0.125 0.671875 -0.75 C 0.0546875 -1.382812 -0.25 -2.332031 -0.25 -3.59375 C -0.25 -4.125 -0.164062 -4.8125 0 -5.65625 L 1.890625 -14.53125 L 0.859375 -14.53125 L 1.109375 -15.78125 L 2.140625 -15.78125 L 3.09375 -20.140625 L 7.765625 -20.78125 L 6.6875 -15.78125 L 8.59375 -15.78125 L 8.34375 -14.53125 L 6.4375 -14.53125 L 4.421875 -5.046875 C 4.335938 -4.734375 4.296875 -4.398438 4.296875 -4.046875 C 4.296875 -3.617188 4.394531 -3.316406 4.59375 -3.140625 C 4.789062 -2.960938 5.125 -2.875 5.59375 -2.875 C 6.195312 -2.875 6.757812 -3.128906 7.28125 -3.640625 C 7.8125 -4.160156 8.195312 -4.832031 8.4375 -5.65625 L 9.75 -5.65625 C 8.976562 -3.375 7.976562 -1.828125 6.75 -1.015625 C 5.53125 -0.210938 4.320312 0.1875 3.125 0.1875 Z M 3.125 0.1875 "/></g></g></g><g fill="#767676" fill-opacity="1"><g transform="translate(178.592387, 28.407296)"><g><path d="M 3.59375 0.1875 C 2.582031 0.1875 1.726562 -0.00390625 1.03125 -0.390625 C 0.34375 -0.785156 -0.164062 -1.289062 -0.5 -1.90625 C -0.84375 -2.53125 -1.015625 -3.179688 -1.015625 -3.859375 C -1.015625 -4.546875 -0.847656 -5.144531 -0.515625 -5.65625 C -0.191406 -6.175781 0.195312 -6.554688 0.65625 -6.796875 C 1.476562 -8.265625 2.191406 -9.75 2.796875 -11.25 C 3.410156 -12.757812 3.992188 -14.390625 4.546875 -16.140625 L 9.21875 -16.765625 C 9.320312 -14.066406 9.5 -11.148438 9.75 -8.015625 C 9.863281 -6.753906 9.921875 -5.84375 9.921875 -5.28125 C 9.921875 -4.789062 9.878906 -4.390625 9.796875 -4.078125 C 10.773438 -4.640625 11.53125 -5.164062 12.0625 -5.65625 L 13.390625 -5.65625 C 12.046875 -4.09375 10.4375 -2.773438 8.5625 -1.703125 C 7.945312 -1.046875 7.191406 -0.566406 6.296875 -0.265625 C 5.398438 0.0351562 4.5 0.1875 3.59375 0.1875 Z M 2.59375 -2.3125 C 3.363281 -2.3125 4.015625 -2.539062 4.546875 -3 C 5.078125 -3.457031 5.34375 -4.203125 5.34375 -5.234375 C 5.34375 -5.867188 5.273438 -6.753906 5.140625 -7.890625 C 4.929688 -10.296875 4.796875 -11.90625 4.734375 -12.71875 C 4.234375 -11.0625 3.378906 -9.070312 2.171875 -6.75 C 2.660156 -6.5 2.90625 -6.132812 2.90625 -5.65625 C 2.90625 -5.25 2.769531 -4.890625 2.5 -4.578125 C 2.238281 -4.265625 1.910156 -4.109375 1.515625 -4.109375 C 1.078125 -4.109375 0.789062 -4.242188 0.65625 -4.515625 C 0.65625 -3.753906 0.804688 -3.195312 1.109375 -2.84375 C 1.421875 -2.488281 1.914062 -2.3125 2.59375 -2.3125 Z M 2.59375 -2.3125 "/></g></g></g></svg>