<svg xmlns="http://www.w3.org/2000/svg" xmlns:xlink="http://www.w3.org/1999/xlink" width="300" zoomAndPan="magnify" viewBox="0 0 224.87999 37.5" height="50" preserveAspectRatio="xMidYMid meet" version="1.0"><defs><g/></defs><g fill="#767676" fill-opacity="1"><g transform="translate(53.067563, 27.288249)"><g><path d="M 10.140625 -21.6875 C 8.535156 -21.164062 7.296875 -20.296875 6.421875 -19.078125 C 5.546875 -17.867188 5.109375 -16.375 5.109375 -14.59375 C 5.109375 -13.789062 5.179688 -13.238281 5.328125 -12.9375 C 5.484375 -12.644531 5.5625 -12.46875 5.5625 -12.40625 C 3.300781 -12.40625 2.171875 -13.363281 2.171875 -15.28125 C 2.171875 -16.582031 2.671875 -17.890625 3.671875 -19.203125 C 4.671875 -20.523438 5.957031 -21.601562 7.53125 -22.4375 C 9.101562 -23.269531 10.664062 -23.6875 12.21875 -23.6875 C 13 -23.6875 13.800781 -23.535156 14.625 -23.234375 L 13.890625 -6.59375 L 20.84375 -23.234375 L 25.390625 -23.234375 L 22.078125 0 L 17.53125 0 L 19.546875 -14.171875 L 13.609375 0 L 9.28125 0 L 9.921875 -14.234375 L 4.640625 0 L 2.109375 0 Z M 10.140625 -21.6875 "/></g></g></g><g fill="#767676" fill-opacity="1"><g transform="translate(77.914089, 27.288249)"><g><path d="M 4.921875 7.890625 C 3.910156 7.890625 3.066406 7.625 2.390625 7.09375 C 1.722656 6.570312 1.390625 5.816406 1.390625 4.828125 C 1.390625 3.628906 1.875 2.664062 2.84375 1.9375 C 3.8125 1.21875 5.039062 0.613281 6.53125 0.125 L 6.921875 -1.578125 C 6.304688 -0.898438 5.679688 -0.4375 5.046875 -0.1875 C 4.421875 0.0625 3.78125 0.1875 3.125 0.1875 C 2.113281 0.1875 1.296875 -0.125 0.671875 -0.75 C 0.0546875 -1.382812 -0.25 -2.332031 -0.25 -3.59375 C -0.25 -4.125 -0.164062 -4.8125 0 -5.65625 L 2.140625 -15.78125 L 6.6875 -15.78125 L 4.421875 -5.046875 C 4.359375 -4.796875 4.328125 -4.535156 4.328125 -4.265625 C 4.328125 -3.335938 4.644531 -2.875 5.28125 -2.875 C 5.820312 -2.875 6.300781 -3.109375 6.71875 -3.578125 C 7.144531 -4.054688 7.484375 -4.6875 7.734375 -5.46875 L 9.953125 -15.78125 L 14.5 -15.78125 L 11.375 -1.140625 C 12.382812 -1.472656 13.191406 -1.972656 13.796875 -2.640625 C 14.410156 -3.316406 14.925781 -4.320312 15.34375 -5.65625 L 16.671875 -5.65625 C 16.109375 -3.78125 15.34375 -2.40625 14.375 -1.53125 C 13.40625 -0.65625 12.304688 -0.0625 11.078125 0.25 L 10.609375 2.53125 C 10.191406 4.570312 9.46875 5.972656 8.4375 6.734375 C 7.40625 7.503906 6.234375 7.890625 4.921875 7.890625 Z M 4.203125 5.4375 C 4.554688 5.4375 4.898438 5.191406 5.234375 4.703125 C 5.578125 4.222656 5.84375 3.53125 6.03125 2.625 L 6.21875 1.703125 C 4.15625 2.460938 3.125 3.359375 3.125 4.390625 C 3.125 4.660156 3.21875 4.898438 3.40625 5.109375 C 3.59375 5.328125 3.859375 5.4375 4.203125 5.4375 Z M 4.203125 5.4375 "/></g></g></g><g fill="#767676" fill-opacity="1"><g transform="translate(93.257691, 27.288249)"><g/></g></g><g fill="#767676" fill-opacity="1"><g transform="translate(100.108639, 27.288249)"><g><path d="M 7.734375 0.5625 C 6.410156 0.5625 5.242188 0.332031 4.234375 -0.125 C 3.222656 -0.59375 2.441406 -1.238281 1.890625 -2.0625 C 1.347656 -2.894531 1.078125 -3.859375 1.078125 -4.953125 C 1.078125 -5.878906 1.269531 -6.722656 1.65625 -7.484375 C 2.039062 -8.242188 2.566406 -8.84375 3.234375 -9.28125 C 3.898438 -9.726562 4.632812 -9.953125 5.4375 -9.953125 C 6.164062 -9.953125 6.78125 -9.765625 7.28125 -9.390625 C 7.789062 -9.023438 8.109375 -8.515625 8.234375 -7.859375 C 7.140625 -7.859375 6.265625 -7.566406 5.609375 -6.984375 C 4.960938 -6.410156 4.640625 -5.628906 4.640625 -4.640625 C 4.640625 -3.734375 4.910156 -3.003906 5.453125 -2.453125 C 6.003906 -1.910156 6.734375 -1.640625 7.640625 -1.640625 C 8.753906 -1.640625 9.675781 -2.015625 10.40625 -2.765625 C 11.132812 -3.515625 11.5 -4.457031 11.5 -5.59375 C 11.5 -6.582031 11.222656 -7.515625 10.671875 -8.390625 C 10.128906 -9.273438 9.304688 -10.351562 8.203125 -11.625 C 7.066406 -12.925781 6.207031 -14.046875 5.625 -14.984375 C 5.050781 -15.921875 4.765625 -16.945312 4.765625 -18.0625 C 4.765625 -19.15625 5.066406 -20.140625 5.671875 -21.015625 C 6.285156 -21.890625 7.128906 -22.578125 8.203125 -23.078125 C 9.285156 -23.585938 10.5 -23.84375 11.84375 -23.84375 C 13.550781 -23.84375 14.914062 -23.441406 15.9375 -22.640625 C 16.957031 -21.835938 17.46875 -20.765625 17.46875 -19.421875 C 17.46875 -18.535156 17.242188 -17.816406 16.796875 -17.265625 C 16.359375 -16.722656 15.78125 -16.453125 15.0625 -16.453125 C 14.257812 -16.453125 13.617188 -16.78125 13.140625 -17.4375 C 13.535156 -17.726562 13.847656 -18.113281 14.078125 -18.59375 C 14.316406 -19.082031 14.4375 -19.585938 14.4375 -20.109375 C 14.4375 -20.785156 14.234375 -21.320312 13.828125 -21.71875 C 13.429688 -22.125 12.882812 -22.328125 12.1875 -22.328125 C 11.34375 -22.328125 10.648438 -22.023438 10.109375 -21.421875 C 9.578125 -20.828125 9.3125 -20.066406 9.3125 -19.140625 C 9.3125 -18.296875 9.550781 -17.507812 10.03125 -16.78125 C 10.519531 -16.050781 11.28125 -15.117188 12.3125 -13.984375 C 13.15625 -13.078125 13.832031 -12.296875 14.34375 -11.640625 C 14.863281 -10.992188 15.304688 -10.242188 15.671875 -9.390625 C 16.046875 -8.535156 16.234375 -7.613281 16.234375 -6.625 C 16.234375 -5.28125 15.859375 -4.0625 15.109375 -2.96875 C 14.359375 -1.875 13.335938 -1.007812 12.046875 -0.375 C 10.753906 0.25 9.316406 0.5625 7.734375 0.5625 Z M 7.734375 0.5625 "/></g></g></g><g fill="#767676" fill-opacity="1"><g transform="translate(118.104217, 27.288249)"><g><path d="M 11.875 0.1875 C 10.570312 0.1875 9.582031 -0.117188 8.90625 -0.734375 C 8.226562 -1.359375 7.890625 -2.25 7.890625 -3.40625 C 7.890625 -3.914062 7.953125 -4.460938 8.078125 -5.046875 L 8.34375 -6.28125 C 8.425781 -6.644531 8.46875 -7.035156 8.46875 -7.453125 C 8.46875 -8.460938 8.085938 -8.96875 7.328125 -8.96875 C 6.992188 -8.96875 6.640625 -8.875 6.265625 -8.6875 C 5.898438 -8.5 5.472656 -8.203125 4.984375 -7.796875 L 3.34375 0 L -1.203125 0 L 3.375 -21.46875 L 8.046875 -22.109375 L 5.6875 -10.984375 L 11.78125 -15.78125 L 14.90625 -15.78125 L 8.59375 -11.40625 C 8.90625 -11.488281 9.25 -11.53125 9.625 -11.53125 C 10.769531 -11.53125 11.632812 -11.179688 12.21875 -10.484375 C 12.8125 -9.785156 13.109375 -8.898438 13.109375 -7.828125 C 13.109375 -7.390625 13.066406 -6.988281 12.984375 -6.625 L 12.625 -5.046875 C 12.519531 -4.671875 12.46875 -4.335938 12.46875 -4.046875 C 12.46875 -3.265625 12.878906 -2.875 13.703125 -2.875 C 14.335938 -2.875 14.84375 -3.097656 15.21875 -3.546875 C 15.59375 -4.003906 15.972656 -4.707031 16.359375 -5.65625 L 17.6875 -5.65625 C 16.375 -1.757812 14.4375 0.1875 11.875 0.1875 Z M 11.875 0.1875 "/></g></g></g><g fill="#767676" fill-opacity="1"><g transform="translate(134.458091, 27.288249)"><g><path d="M 5.28125 -17.5 C 4.582031 -17.5 3.988281 -17.738281 3.5 -18.21875 C 3.019531 -18.707031 2.78125 -19.296875 2.78125 -19.984375 C 2.78125 -20.679688 3.019531 -21.273438 3.5 -21.765625 C 3.988281 -22.265625 4.582031 -22.515625 5.28125 -22.515625 C 5.96875 -22.515625 6.554688 -22.265625 7.046875 -21.765625 C 7.546875 -21.273438 7.796875 -20.679688 7.796875 -19.984375 C 7.796875 -19.296875 7.546875 -18.707031 7.046875 -18.21875 C 6.554688 -17.738281 5.96875 -17.5 5.28125 -17.5 Z M 3.125 0.1875 C 2.113281 0.1875 1.296875 -0.125 0.671875 -0.75 C 0.0546875 -1.382812 -0.25 -2.332031 -0.25 -3.59375 C -0.25 -4.125 -0.164062 -4.8125 0 -5.65625 L 2.140625 -15.78125 L 6.6875 -15.78125 L 4.421875 -5.046875 C 4.335938 -4.734375 4.296875 -4.398438 4.296875 -4.046875 C 4.296875 -3.617188 4.394531 -3.316406 4.59375 -3.140625 C 4.789062 -2.960938 5.125 -2.875 5.59375 -2.875 C 6.195312 -2.875 6.757812 -3.128906 7.28125 -3.640625 C 7.8125 -4.160156 8.195312 -4.832031 8.4375 -5.65625 L 9.75 -5.65625 C 8.976562 -3.375 7.976562 -1.828125 6.75 -1.015625 C 5.53125 -0.210938 4.320312 0.1875 3.125 0.1875 Z M 3.125 0.1875 "/></g></g></g><g fill="#767676" fill-opacity="1"><g transform="translate(142.887601, 27.288249)"><g><path d="M 3.125 0.1875 C 2.113281 0.1875 1.296875 -0.125 0.671875 -0.75 C 0.0546875 -1.382812 -0.25 -2.332031 -0.25 -3.59375 C -0.25 -4.125 -0.164062 -4.8125 0 -5.65625 L 3.375 -21.46875 L 8.046875 -22.109375 L 4.421875 -5.046875 C 4.335938 -4.734375 4.296875 -4.398438 4.296875 -4.046875 C 4.296875 -3.617188 4.394531 -3.316406 4.59375 -3.140625 C 4.789062 -2.960938 5.125 -2.875 5.59375 -2.875 C 6.195312 -2.875 6.757812 -3.128906 7.28125 -3.640625 C 7.8125 -4.160156 8.195312 -4.832031 8.4375 -5.65625 L 9.75 -5.65625 C 8.976562 -3.375 7.976562 -1.828125 6.75 -1.015625 C 5.53125 -0.210938 4.320312 0.1875 3.125 0.1875 Z M 3.125 0.1875 "/></g></g></g><g fill="#767676" fill-opacity="1"><g transform="translate(151.317112, 27.288249)"><g><path d="M 3.125 0.1875 C 2.113281 0.1875 1.296875 -0.125 0.671875 -0.75 C 0.0546875 -1.382812 -0.25 -2.332031 -0.25 -3.59375 C -0.25 -4.125 -0.164062 -4.8125 0 -5.65625 L 3.375 -21.46875 L 8.046875 -22.109375 L 4.421875 -5.046875 C 4.335938 -4.734375 4.296875 -4.398438 4.296875 -4.046875 C 4.296875 -3.617188 4.394531 -3.316406 4.59375 -3.140625 C 4.789062 -2.960938 5.125 -2.875 5.59375 -2.875 C 6.195312 -2.875 6.757812 -3.128906 7.28125 -3.640625 C 7.8125 -4.160156 8.195312 -4.832031 8.4375 -5.65625 L 9.75 -5.65625 C 8.976562 -3.375 7.976562 -1.828125 6.75 -1.015625 C 5.53125 -0.210938 4.320312 0.1875 3.125 0.1875 Z M 3.125 0.1875 "/></g></g></g><g fill="#767676" fill-opacity="1"><g transform="translate(159.746622, 27.288249)"><g><path d="M 3.59375 0.1875 C 2.582031 0.1875 1.726562 -0.00390625 1.03125 -0.390625 C 0.34375 -0.785156 -0.164062 -1.289062 -0.5 -1.90625 C -0.84375 -2.53125 -1.015625 -3.179688 -1.015625 -3.859375 C -1.015625 -4.546875 -0.847656 -5.144531 -0.515625 -5.65625 C -0.191406 -6.175781 0.195312 -6.554688 0.65625 -6.796875 C 1.476562 -8.265625 2.191406 -9.75 2.796875 -11.25 C 3.410156 -12.757812 3.992188 -14.390625 4.546875 -16.140625 L 9.21875 -16.765625 C 9.320312 -14.066406 9.5 -11.148438 9.75 -8.015625 C 9.863281 -6.753906 9.921875 -5.84375 9.921875 -5.28125 C 9.921875 -4.789062 9.878906 -4.390625 9.796875 -4.078125 C 10.773438 -4.640625 11.53125 -5.164062 12.0625 -5.65625 L 13.390625 -5.65625 C 12.046875 -4.09375 10.4375 -2.773438 8.5625 -1.703125 C 7.945312 -1.046875 7.191406 -0.566406 6.296875 -0.265625 C 5.398438 0.0351562 4.5 0.1875 3.59375 0.1875 Z M 2.59375 -2.3125 C 3.363281 -2.3125 4.015625 -2.539062 4.546875 -3 C 5.078125 -3.457031 5.34375 -4.203125 5.34375 -5.234375 C 5.34375 -5.867188 5.273438 -6.753906 5.140625 -7.890625 C 4.929688 -10.296875 4.796875 -11.90625 4.734375 -12.71875 C 4.234375 -11.0625 3.378906 -9.070312 2.171875 -6.75 C 2.660156 -6.5 2.90625 -6.132812 2.90625 -5.65625 C 2.90625 -5.25 2.769531 -4.890625 2.5 -4.578125 C 2.238281 -4.265625 1.910156 -4.109375 1.515625 -4.109375 C 1.078125 -4.109375 0.789062 -4.242188 0.65625 -4.515625 C 0.65625 -3.753906 0.804688 -3.195312 1.109375 -2.84375 C 1.421875 -2.488281 1.914062 -2.3125 2.59375 -2.3125 Z M 2.59375 -2.3125 "/></g></g></g></svg>